<svg width="917" height="684" viewBox="0 0 917 684" fill="none" xmlns="http://www.w3.org/2000/svg">
<path d="M916.728 600.273H0V600.731H916.728V600.273Z" fill="#EBEBEB"/>
<path d="M824.872 629.773H764.148V630.232H824.872V629.773Z" fill="#EBEBEB"/>
<path d="M607.277 634.76H591.344V635.219H607.277V634.76Z" fill="#EBEBEB"/>
<path d="M762.314 612.759H727.13V613.217H762.314V612.759Z" fill="#EBEBEB"/>
<path d="M175.37 615.839H96.1833V616.297H175.37V615.839Z" fill="#EBEBEB"/>
<path d="M203.312 615.839H191.706V616.297H203.312V615.839Z" fill="#EBEBEB"/>
<path d="M412.803 623.577H241.045V624.035H412.803V623.577Z" fill="#EBEBEB"/>
<path d="M434.529 518.501H80.5076C77.7342 518.496 75.0761 517.391 73.1167 515.428C71.1573 513.465 70.0569 510.805 70.0569 508.032V10.3774C70.081 7.61988 71.1921 4.98329 73.1489 3.04027C75.1057 1.09725 77.75 0.00472369 80.5076 0H434.529C437.306 0 439.969 1.10298 441.932 3.06631C443.895 5.02963 444.998 7.69247 444.998 10.469V508.032C444.998 510.809 443.895 513.471 441.932 515.435C439.969 517.398 437.306 518.501 434.529 518.501ZM80.5076 0.366692C77.8558 0.371549 75.3142 1.42838 73.4408 3.30522C71.5674 5.18206 70.5152 7.72554 70.5152 10.3774V508.032C70.5152 510.684 71.5674 513.227 73.4408 515.104C75.3142 516.981 77.8558 518.038 80.5076 518.043H434.529C437.183 518.038 439.726 516.982 441.603 515.105C443.479 513.229 444.535 510.686 444.54 508.032V10.3774C444.535 7.72385 443.479 5.18041 441.603 3.3041C439.726 1.42779 437.183 0.371539 434.529 0.366692H80.5076Z" fill="#EBEBEB"/>
<path d="M831.124 518.501H477.084C474.309 518.496 471.649 517.392 469.687 515.429C467.724 513.467 466.62 510.807 466.615 508.032V10.3774C466.644 7.61821 467.759 4.98164 469.719 3.03912C471.678 1.09661 474.325 0.00467217 477.084 0H831.124C833.879 0.00954221 836.518 1.1042 838.471 3.0467C840.424 4.98921 841.532 7.62305 841.557 10.3774V508.032C841.557 510.802 840.459 513.46 838.503 515.422C836.548 517.384 833.894 518.491 831.124 518.501ZM477.084 0.366692C474.43 0.371539 471.887 1.42779 470.011 3.3041C468.134 5.18041 467.078 7.72385 467.073 10.3774V508.032C467.078 510.686 468.134 513.229 470.011 515.105C471.887 516.982 474.43 518.038 477.084 518.043H831.124C833.778 518.038 836.321 516.982 838.197 515.105C840.074 513.229 841.13 510.686 841.135 508.032V10.3774C841.13 7.72385 840.074 5.18041 838.197 3.3041C836.321 1.42779 833.778 0.371539 831.124 0.366692H477.084Z" fill="#EBEBEB"/>
<path d="M458.181 600.292C458.694 596.148 458.456 590.098 453.322 588.393C445.273 585.752 440.488 579.519 440.763 572.46C441.038 565.401 432.567 558.562 426.224 565.126C419.88 571.69 420.723 560.047 412.253 557.205C403.782 554.364 396.595 561.257 398.924 567.564C401.252 573.872 392.891 577.777 382.881 572.423C372.87 567.069 361.869 576.823 363.978 584.432C366.086 592.041 364.363 592.903 358.038 590.373C352.665 588.209 343.755 593.068 343.553 600.255L458.181 600.292Z" fill="#E6E6E6"/>
<path d="M136.959 145.338H303.235C324.54 145.338 329.674 115.526 309.561 108.522L308.772 108.265C331.03 89.7108 282.205 50.6215 229.164 104.745C233.307 86.7039 186.151 93.231 171.74 117.854C166.606 101.683 121.65 129.772 136.959 145.338Z" fill="#F0F0F0"/>
<path d="M542.172 99.2817H641.875C641.875 99.2817 665.251 90.4811 662.226 67.1596C659.201 43.838 623.907 63.2726 623.907 63.2726C623.907 63.2726 634.596 30.7288 600.421 39.9694C566.245 49.21 562.871 81.4605 562.871 81.4605C562.871 81.4605 518.007 73.6133 542.172 99.2817Z" fill="#F0F0F0"/>
<path d="M701.315 174.563H767.136C767.136 174.563 782.574 168.751 780.575 153.35C778.577 137.949 755.274 150.783 755.274 150.783C755.274 150.783 762.332 129.313 739.763 135.401C733.409 137.037 727.678 140.507 723.283 145.378C718.888 150.248 716.024 156.305 715.048 162.792C715.048 162.792 685.364 157.677 701.315 174.563Z" fill="#F0F0F0"/>
<path d="M414.545 392.543C422.282 424.005 344.067 410.309 324.944 396.21C305.821 382.11 291.006 401.123 260.773 364.252C230.539 327.382 293.903 339.611 291.776 322.835C289.65 306.059 359.614 334.88 384.054 335.155C461.353 335.889 406.807 361.081 414.545 392.543Z" fill="#E6E6E6"/>
<path d="M171.465 350.96C165.011 392.543 243.996 383.559 262.807 366.691C281.619 349.823 297.643 377.435 326.575 331.287C355.507 285.139 291.739 293.939 293.078 271.535C294.416 249.13 224.617 279.583 199.718 277.035C121.136 268.821 177.845 309.395 171.465 350.96Z" fill="#E6E6E6"/>
<path d="M307.269 359.76L308.827 419.036L311.119 482.785L341.371 600.53H291.483L286 516.924L277.878 479.87L280.335 417.312L276.833 339.042L272.03 292.436H296.855L307.269 359.76Z" fill="#F0F0F0"/>
<path d="M292.491 369.918L312.146 333.23L327.602 297.845L317.591 337.979L299.11 380.827L292.491 369.918Z" fill="#F0F0F0"/>
<path d="M309.488 355.69C325.989 393.844 383.981 352.023 390.16 329.527C396.338 307.03 423.162 323.605 422.502 271.773C421.842 219.941 375.565 255.143 365.096 235.489C354.627 215.834 314.933 271.956 293.83 280.518C227.349 307.544 293.041 317.499 309.488 355.69Z" fill="#E6E6E6"/>
<path d="M323.532 239.853C354.37 264.733 290.089 303.418 265.539 302.575C240.99 301.732 246.417 329.71 195.868 314.529C145.32 299.348 198.38 269.115 183.272 254.52C168.165 239.926 239.193 221.115 256.042 205.2C309.304 154.945 292.675 214.973 323.532 239.853Z" fill="#E6E6E6"/>
<path d="M284.791 434.841L245.867 382.385L222.912 341.279L218.731 350.575L277.879 479.87L284.791 434.841Z" fill="#F0F0F0"/>
<path d="M670.219 239.156C652.966 254.263 581.095 267.116 596.019 283.892C610.944 300.668 557.04 327.271 607.625 348.063C658.21 368.854 653.26 338.896 677.92 342.251C702.58 345.606 768.162 311.082 737.489 282.022C706.815 252.962 724.82 191.504 670.219 239.156Z" fill="#E6E6E6"/>
<path d="M514.835 215.303C539.715 225.112 614.795 215.174 610.266 236.992C605.737 258.81 671.76 268.619 635.934 305.949C600.109 343.278 587.733 311.321 566.263 322.45C544.793 333.579 463.589 319.663 475.819 280.28C488.048 240.898 436.363 184.354 514.835 215.303Z" fill="#E6E6E6"/>
<path d="M621.193 225.13L652.6 227.22L660.118 286.917L678.489 387.501L681.734 451.085L691.763 501.12L722.968 600.53H659.733L646.697 444.283L642.975 387.336L627.665 311.045L621.193 225.13Z" fill="#F0F0F0"/>
<path d="M644.148 338.914L608.249 282.095L583.919 229.494L613.786 276.43L649.319 325.365L644.148 338.914Z" fill="#F0F0F0"/>
<path d="M695.118 198.893C711.802 206.044 761.837 198.307 758.94 214.496C756.043 230.685 800.175 237.689 776.468 265.576C752.761 293.463 744.328 269.811 730.118 278.227C715.909 286.642 661.547 276.668 669.486 247.407C677.425 218.145 642.461 176.287 695.118 198.893Z" fill="#E6E6E6"/>
<path d="M636.539 151.425C609.661 159.4 516.815 138.261 528.695 163.782C540.576 189.304 464.525 191.889 518.575 239.229C572.625 286.569 577.905 251.641 606.929 267.262C635.953 282.883 729.147 277.475 702.69 230.813C676.234 184.152 721.392 126.306 636.539 151.425Z" fill="#E6E6E6"/>
<path d="M673.025 359.669L711.655 315.574L725.315 280.537L702.543 308.937L662.849 345.111L673.025 359.669Z" fill="#F0F0F0"/>
<path d="M658.027 601.813C658.467 596.569 657.752 589.786 651.629 587.769C641.27 584.34 635.128 576.328 635.476 567.253C635.824 558.177 624.915 549.34 616.72 557.847C608.524 566.354 609.642 551.302 598.733 547.653C587.824 544.004 578.565 552.86 581.554 560.964C584.542 569.068 573.78 574.146 560.891 567.253C548.002 560.359 533.829 572.9 536.561 582.709C539.293 592.518 537.056 593.618 528.897 590.354C522.297 587.696 511.516 593.251 510.324 601.813H658.027Z" fill="#EBEBEB"/>
<path d="M191.982 600.291H380.296C382.936 591.454 376.097 580.857 368.635 579.372C359.468 577.538 350.301 561.404 349.824 551.136C349.347 540.869 332.883 509.279 307.214 528.787C281.546 548.295 289.338 531.702 270.784 526.201C252.229 520.701 240.495 536.487 248.635 548.313C248.635 548.313 229.989 543.638 222.307 561.055C214.625 578.473 222.307 589.291 222.307 589.291C222.307 589.291 198.729 588.539 191.982 600.291Z" fill="#EBEBEB"/>
<path d="M458.364 683.072C654.695 683.072 813.853 673.78 813.853 662.317C813.853 650.855 654.695 641.563 458.364 641.563C262.033 641.563 102.875 650.855 102.875 662.317C102.875 673.78 262.033 683.072 458.364 683.072Z" fill="#F5F5F5"/>
<path d="M501.579 600.749C501.579 600.749 518.08 586.082 513.184 583.698C508.289 581.315 502.184 594.699 501.579 592.7C500.974 590.702 504.824 572.147 495.62 573.431C486.416 574.714 495.62 592.7 495.62 592.7C495.62 592.7 488.799 585.367 486.453 586.485C484.106 587.603 493.786 600.749 493.786 600.749H501.579Z" fill="#B99980"/>
<path d="M266.383 603.811C266.383 603.811 262.716 591.344 270.197 588.85C277.677 586.357 282.187 580.545 281.949 573.944C281.711 567.344 289.613 560.927 295.572 567.105C301.53 573.284 300.724 562.357 308.644 559.772C316.565 557.186 323.312 563.549 321.13 569.452C318.948 575.356 326.777 579.023 336.146 574.018C345.515 569.012 355.819 578.124 353.839 585.257C351.859 592.389 353.472 593.177 359.339 590.757C365.206 588.337 375.84 595.121 372.173 603.848C368.507 612.575 266.383 603.811 266.383 603.811Z" fill="#B99980"/>
<path d="M603.904 607.698C599.156 604.49 603.428 599.026 608.158 598.384C612.888 597.743 617.655 592.096 617.875 588.502C618.095 584.908 626.639 573.834 639.877 580.673C653.114 587.512 649.044 581.681 658.706 579.756C668.368 577.831 674.346 583.423 670.129 587.494C670.129 587.494 679.773 585.862 683.751 591.967C687.73 598.073 683.751 601.868 683.751 601.868C683.751 601.868 701.866 601.501 700.252 609.092C698.639 616.682 603.904 607.698 603.904 607.698Z" fill="#B99980"/>
<path d="M181.843 598.201C181.843 598.201 196.419 569.764 192.752 567.032C189.085 564.3 181.861 590.867 181.843 588.722C181.825 586.577 182.246 550.494 175.517 551.924C168.789 553.354 175.517 586.668 175.517 586.668C175.517 586.668 166.46 569.635 162.903 570.937C159.346 572.239 173.372 592.462 173.372 592.462C173.372 592.462 165.012 587.383 162.903 587.787C160.795 588.19 173.372 598.256 173.372 598.256L181.843 598.201Z" fill="#B99980"/>
<path d="M746.95 601.666C746.95 601.666 732.374 573.229 736.041 570.497C739.708 567.766 746.95 594.332 746.95 592.187C746.95 590.042 746.547 553.96 753.276 555.39C760.004 556.82 753.276 590.134 753.276 590.134C753.276 590.134 762.351 573.119 765.89 574.403C769.428 575.686 755.384 595.872 755.384 595.872C755.384 595.872 763.763 590.794 765.853 591.197C767.943 591.601 755.384 601.666 755.384 601.666H746.95Z" fill="#B99980"/>
<path d="M792.878 630.855L106.121 630.855V599.466C106.121 598.547 106.486 597.666 107.136 597.016C107.785 596.366 108.667 596.001 109.586 596.001L789.413 596.001C790.332 596.001 791.213 596.366 791.863 597.016C792.513 597.666 792.878 598.547 792.878 599.466V630.855Z" fill="#263238"/>
<path opacity="0.7" d="M792.878 630.855L106.121 630.855V599.466C106.121 598.547 106.486 597.666 107.136 597.016C107.785 596.366 108.667 596.001 109.586 596.001L789.413 596.001C790.332 596.001 791.213 596.366 791.863 597.016C792.513 597.666 792.878 598.547 792.878 599.466V630.855Z" fill="white"/>
<path opacity="0.2" d="M109.494 626.528H154.469V602.913H109.494V626.528Z" fill="white"/>
<path opacity="0.2" d="M156.889 624.273H201.864V600.658H156.889V624.273Z" fill="white"/>
<path opacity="0.2" d="M203.771 624.291H233.051V609.275H203.771V624.291Z" fill="white"/>
<path opacity="0.2" d="M752.542 626.216H781.823V611.2H752.542V626.216Z" fill="white"/>
<path opacity="0.2" d="M235.397 622.311H266.181V601.758H235.397V622.311Z" fill="white"/>
<path opacity="0.2" d="M268.455 619.542H289.393V598.989H268.455V619.542Z" fill="white"/>
<path opacity="0.2" d="M728.212 623.466H749.15V602.913H728.212V623.466Z" fill="white"/>
<path opacity="0.2" d="M356.681 623.466H377.619V602.913H356.681V623.466Z" fill="white"/>
<path opacity="0.2" d="M334.698 613.18H355.636V598.971H334.698V613.18Z" fill="white"/>
<path opacity="0.2" d="M291.52 625.006H326.007V604.453H291.52V625.006Z" fill="white"/>
<path opacity="0.2" d="M380.003 622.311H414.49V601.758H380.003V622.311Z" fill="white"/>
<path opacity="0.2" d="M205.806 607.277H228.009V600.658H205.806V607.277Z" fill="white"/>
<path opacity="0.2" d="M759.62 607.735H781.823V601.116H759.62V607.735Z" fill="white"/>
<path opacity="0.2" d="M330.059 622.842H352.262V616.223H330.059V622.842Z" fill="white"/>
<path opacity="0.2" d="M417.514 626.528H462.489V602.913H417.514V626.528Z" fill="white"/>
<path opacity="0.2" d="M464.91 624.273H509.884V600.658H464.91V624.273Z" fill="white"/>
<path opacity="0.2" d="M511.791 624.291H541.072V609.275H511.791V624.291Z" fill="white"/>
<path opacity="0.2" d="M543.418 622.311H574.201V601.758H543.418V622.311Z" fill="white"/>
<path opacity="0.2" d="M576.476 619.542H597.414V598.989H576.476V619.542Z" fill="white"/>
<path opacity="0.2" d="M664.702 623.466H685.64V602.913H664.702V623.466Z" fill="white"/>
<path opacity="0.2" d="M642.719 613.18H663.657V598.971H642.719V613.18Z" fill="white"/>
<path opacity="0.2" d="M599.54 625.006H634.027V604.453H599.54V625.006Z" fill="white"/>
<path opacity="0.2" d="M688.023 622.311H722.51V601.758H688.023V622.311Z" fill="white"/>
<path opacity="0.2" d="M513.826 607.277H536.03V600.658H513.826V607.277Z" fill="white"/>
<path opacity="0.2" d="M638.079 622.842H660.282V616.223H638.079V622.842Z" fill="white"/>
<path d="M204.961 62.9975C203.65 62.693 202.368 62.2759 201.129 61.7508C198.819 60.8524 195.867 59.3306 192.769 57.8455C190.199 56.5758 187.435 55.7453 184.592 55.3887C182.41 55.1503 180.925 55.3887 180.723 54.8203C180.521 54.2519 181.805 53.1885 184.39 52.6935C187.805 52.2304 191.279 52.8255 194.346 54.3986C197.215 55.9009 199.832 57.8435 202.101 60.1556C203.898 61.8608 204.961 62.9975 204.961 62.9975Z" fill="#B99980"/>
<path d="M218.419 52.1618L215.651 53.2436C214.001 53.9219 211.984 54.8753 209.6 55.8837C204.962 57.9372 201.002 60.064 200.433 59.129C200.14 58.7073 200.745 57.6622 202.083 56.3788C203.861 54.6978 205.921 53.3447 208.17 52.3818C210.478 51.3861 213.012 51.0314 215.504 51.3551C216.259 51.4583 217.003 51.6365 217.723 51.8868L218.419 52.1618Z" fill="#B99980"/>
<path d="M179.99 71.083L179.238 70.6247C178.762 70.313 178.047 69.9096 177.185 69.4513C175.011 68.2771 172.742 67.2896 170.401 66.4994C165.011 64.5559 160.189 64.996 160.042 64.1709C160.042 63.8042 161.142 63.1809 163.232 62.8875C165.967 62.5787 168.736 62.8856 171.336 63.7859C173.936 64.701 176.259 66.2663 178.083 68.3329C178.634 68.9443 179.126 69.6074 179.55 70.313L179.99 71.083Z" fill="#B99980"/>
<path d="M185.289 59.9357L183.345 61.0541L179.037 63.4559C175.791 65.2894 173.279 67.3245 172.656 66.7745C172.381 66.4995 172.656 65.6377 173.481 64.5193C174.602 63.0175 176.026 61.7682 177.661 60.8524C179.307 59.9732 181.15 59.5312 183.015 59.569C183.785 59.5986 184.548 59.7217 185.289 59.9357Z" fill="#B99980"/>
<path d="M175.516 53.5921C175.516 53.5921 173.683 52.9504 170.896 51.7586C168.109 50.5669 164.35 48.9168 160.225 47.56C156.752 46.3854 153.088 45.8754 149.426 46.0566C146.603 46.2216 144.806 46.7716 144.549 46.2583C144.292 45.7449 145.778 44.4248 148.931 43.4164C153.037 42.394 157.353 42.5979 161.344 44.0031C165.209 45.3765 168.771 47.4873 171.831 50.2185C173.12 51.2752 174.35 52.4014 175.516 53.5921Z" fill="#B99980"/>
<path d="M187.911 37.8426L186.884 38.1359C186.205 38.301 185.27 38.5943 184.152 38.9427C181.343 39.8609 178.588 40.9383 175.901 42.1695C169.631 44.9747 165.597 49.1367 164.736 48.4766C164.332 48.1649 164.846 46.6432 166.441 44.663C168.583 42.1129 171.271 40.0765 174.306 38.7043C177.342 37.3429 180.67 36.763 183.987 37.0175C184.978 37.09 185.96 37.2558 186.92 37.5126L187.911 37.8426Z" fill="#B99980"/>
<path d="M742.348 121.099L735.27 188.937H699.921L692.863 121.099H742.348Z" fill="#263238"/>
<path opacity="0.3" d="M742.348 121.099L735.27 188.937H699.921L692.863 121.099H742.348Z" fill="white"/>
<path d="M724.178 174.343H711.014V663.601H724.178V174.343Z" fill="#263238"/>
<path opacity="0.3" d="M724.178 174.343H711.014V663.601H724.178V174.343Z" fill="white"/>
<path d="M731.548 184.794H703.643L697.446 125.225H737.745L731.548 184.794Z" fill="#B99980"/>
<path opacity="0.4" d="M731.548 184.794H703.643L697.446 125.225H737.745L731.548 184.794Z" fill="white"/>
<path d="M713.929 185.729H712.022L709.95 123.153H711.857L713.929 185.729Z" fill="#263238"/>
<path opacity="0.3" d="M713.929 185.729H712.022L709.95 123.153H711.857L713.929 185.729Z" fill="white"/>
<path opacity="0.2" d="M742.348 121.099L735.271 188.937H713.049L710.391 121.099H742.348Z" fill="white"/>
<path d="M717.596 99.2814C717.596 99.2814 696.621 119.981 680.56 119.981L685.547 123.245H749.718L754.705 119.981C738.571 119.981 717.596 99.2814 717.596 99.2814Z" fill="#263238"/>
<path opacity="0.4" d="M754.631 119.981L749.644 123.245H685.474L680.487 119.981C696.566 119.981 717.522 99.2814 717.522 99.2814C717.522 99.2814 738.552 119.981 754.631 119.981Z" fill="white"/>
<path opacity="0.2" d="M754.631 119.981L749.644 123.245H708.007C706.76 121.209 705.862 119.706 705.862 119.706C717.046 114.536 717.596 99.2814 717.596 99.2814C717.596 99.2814 738.552 119.981 754.631 119.981Z" fill="white"/>
<path d="M705.733 654.543H729.458C730.053 654.543 730.642 654.66 731.191 654.888C731.741 655.116 732.24 655.449 732.661 655.87C733.081 656.29 733.415 656.789 733.642 657.339C733.87 657.888 733.987 658.477 733.987 659.072V663.582H701.205V659.072C701.205 658.477 701.322 657.888 701.55 657.339C701.777 656.789 702.111 656.29 702.531 655.87C702.952 655.449 703.451 655.116 704 654.888C704.55 654.66 705.139 654.543 705.733 654.543Z" fill="#263238"/>
<path opacity="0.5" d="M705.733 654.543H729.458C730.053 654.543 730.642 654.66 731.191 654.888C731.741 655.116 732.24 655.449 732.661 655.87C733.081 656.29 733.415 656.789 733.642 657.339C733.87 657.888 733.987 658.477 733.987 659.072V663.582H701.205V659.072C701.205 658.477 701.322 657.888 701.55 657.339C701.777 656.789 702.111 656.29 702.531 655.87C702.952 655.449 703.451 655.116 704 654.888C704.55 654.66 705.139 654.543 705.733 654.543Z" fill="white"/>
<path d="M245.719 551.833L224.524 663.619H238L259.195 551.833H245.719Z" fill="#263238"/>
<path d="M541.822 551.833L520.627 663.619H534.103L555.298 551.833H541.822Z" fill="#263238"/>
<path opacity="0.3" d="M245.719 551.833L224.524 663.619H238L259.195 551.833H245.719Z" fill="white"/>
<path opacity="0.3" d="M541.822 551.833L520.627 663.619H534.103L555.298 551.833H541.822Z" fill="white"/>
<path d="M656.872 604.27H236.424V617.911H656.872V604.27Z" fill="#263238"/>
<path opacity="0.5" d="M656.872 604.27H236.424V617.911H656.872V604.27Z" fill="white"/>
<path d="M341.023 551.833L362.218 663.619H375.694L354.499 551.833H341.023Z" fill="#263238"/>
<path d="M637.107 551.833L658.302 663.619H671.778L650.583 551.833H637.107Z" fill="#263238"/>
<path opacity="0.3" d="M341.023 551.833L362.218 663.619H375.694L354.499 551.833H341.023Z" fill="white"/>
<path opacity="0.3" d="M637.107 551.833L658.302 663.619H671.778L650.583 551.833H637.107Z" fill="white"/>
<path d="M536.157 551.137H522.755L500.313 426.407H513.716L536.157 551.137Z" fill="#263238"/>
<path opacity="0.3" d="M536.157 551.137H522.755L500.313 426.407H513.716L536.157 551.137Z" fill="white"/>
<path d="M269.994 551.137H256.592L234.15 426.407H247.553L269.994 551.137Z" fill="#263238"/>
<path d="M403.067 551.137H389.664L367.223 426.407H380.644L403.067 551.137Z" fill="#263238"/>
<path opacity="0.3" d="M269.994 551.137H256.592L234.15 426.407H247.553L269.994 551.137Z" fill="white"/>
<path opacity="0.3" d="M403.067 551.137H389.664L367.223 426.407H380.644L403.067 551.137Z" fill="white"/>
<path d="M559.313 434.914H207.29L203.091 411.574H555.114L559.313 434.914Z" fill="#263238"/>
<path d="M566.905 477.157H214.881L210.683 453.799H562.706L566.905 477.157Z" fill="#263238"/>
<path d="M574.495 519.381H222.49L218.292 496.042H570.297L574.495 519.381Z" fill="#263238"/>
<path d="M674.601 547.47H225.973V563.623H674.601V547.47Z" fill="#263238"/>
<path opacity="0.5" d="M559.313 434.914H207.29L203.091 411.574H555.114L559.313 434.914Z" fill="white"/>
<path opacity="0.5" d="M566.905 477.157H214.881L210.683 453.799H562.706L566.905 477.157Z" fill="white"/>
<path opacity="0.5" d="M574.495 519.381H222.49L218.292 496.042H570.297L574.495 519.381Z" fill="white"/>
<path opacity="0.5" d="M674.601 547.47H225.973V563.623H674.601V547.47Z" fill="white"/>
<path opacity="0.2" d="M674.602 547.47H336.127V563.623H674.602V547.47Z" fill="white"/>
<path d="M550.935 547.25L555.647 480.64H599.98L608.927 546.681L550.935 547.25Z" fill="#263238"/>
<path opacity="0.3" d="M567.253 480.64V544.481L559.626 535.406L550.935 547.25L555.647 480.64H567.253Z" fill="black"/>
<path d="M588.539 498.792H587.989C577.923 498.223 575.925 484.234 575.852 483.629L577.685 483.391C577.685 483.519 579.518 496.481 588.117 496.976C588.837 497.075 589.57 496.994 590.251 496.741C590.933 496.489 591.541 496.072 592.023 495.528C594.865 492.081 592.811 483.831 592.793 483.739L594.626 483.281C594.718 483.666 596.936 492.448 593.489 496.683C592.886 497.396 592.124 497.958 591.264 498.324C590.405 498.69 589.471 498.85 588.539 498.792Z" fill="white"/>
<path d="M578.034 483.501C578.034 483.661 578.002 483.82 577.94 483.968C577.878 484.116 577.787 484.25 577.673 484.363C577.558 484.476 577.423 484.564 577.274 484.624C577.125 484.684 576.966 484.713 576.805 484.711C576.646 484.713 576.487 484.684 576.339 484.624C576.191 484.564 576.057 484.475 575.944 484.362C575.831 484.249 575.742 484.115 575.682 483.967C575.622 483.819 575.593 483.66 575.595 483.501C575.593 483.34 575.622 483.181 575.682 483.032C575.742 482.883 575.83 482.747 575.943 482.633C576.056 482.519 576.19 482.428 576.338 482.366C576.486 482.304 576.645 482.272 576.805 482.272C576.967 482.272 577.126 482.304 577.275 482.366C577.424 482.428 577.56 482.518 577.674 482.632C577.788 482.746 577.878 482.882 577.94 483.031C578.002 483.18 578.034 483.339 578.034 483.501Z" fill="white"/>
<path d="M593.728 484.729C594.407 484.729 594.957 484.179 594.957 483.501C594.957 482.822 594.407 482.272 593.728 482.272C593.05 482.272 592.5 482.822 592.5 483.501C592.5 484.179 593.05 484.729 593.728 484.729Z" fill="white"/>
<path d="M594.259 526.642H630.158V518.171H594.259V526.642Z" fill="#B99980"/>
<path opacity="0.7" d="M594.259 526.642H630.158V518.171H594.259V526.642Z" fill="white"/>
<path d="M616.26 517.401H644.386C645.663 517.479 646.863 518.04 647.74 518.972C648.618 519.904 649.106 521.136 649.106 522.416C649.106 523.696 648.618 524.927 647.74 525.859C646.863 526.791 645.663 527.353 644.386 527.43H616.26V525.597H620.532C620.971 525.63 621.411 525.572 621.825 525.428C622.24 525.283 622.621 525.054 622.943 524.755C623.265 524.457 623.522 524.095 623.698 523.692C623.874 523.29 623.964 522.855 623.964 522.416C623.964 521.976 623.874 521.542 623.698 521.139C623.522 520.737 623.265 520.375 622.943 520.076C622.621 519.777 622.24 519.549 621.825 519.404C621.411 519.259 620.971 519.201 620.532 519.235H616.26V517.401Z" fill="#B99980"/>
<g opacity="0.4">
<path d="M616.26 517.401H644.386C645.663 517.479 646.863 518.04 647.74 518.972C648.618 519.904 649.106 521.136 649.106 522.416C649.106 523.696 648.618 524.927 647.74 525.859C646.863 526.791 645.663 527.353 644.386 527.43H616.26V525.597H620.532C620.971 525.63 621.411 525.572 621.825 525.428C622.24 525.283 622.621 525.054 622.943 524.755C623.265 524.457 623.522 524.095 623.698 523.692C623.874 523.29 623.964 522.855 623.964 522.416C623.964 521.976 623.874 521.542 623.698 521.139C623.522 520.737 623.265 520.375 622.943 520.076C622.621 519.777 622.24 519.549 621.825 519.404C621.411 519.259 620.971 519.201 620.532 519.235H616.26V517.401Z" fill="white"/>
</g>
<path d="M592.426 517.401H620.532C621.216 517.36 621.902 517.459 622.546 517.692C623.19 517.925 623.78 518.288 624.279 518.758C624.778 519.227 625.176 519.794 625.447 520.423C625.719 521.052 625.859 521.73 625.859 522.416C625.859 523.101 625.719 523.779 625.447 524.408C625.176 525.037 624.778 525.604 624.279 526.074C623.78 526.543 623.19 526.906 622.546 527.139C621.902 527.373 621.216 527.472 620.532 527.43H592.426V525.597H620.532C620.97 525.63 621.411 525.572 621.825 525.428C622.24 525.283 622.621 525.054 622.943 524.755C623.265 524.457 623.522 524.095 623.698 523.692C623.874 523.29 623.964 522.855 623.964 522.416C623.964 521.976 623.874 521.542 623.698 521.139C623.522 520.737 623.265 520.375 622.943 520.076C622.621 519.777 622.24 519.549 621.825 519.404C621.411 519.259 620.97 519.201 620.532 519.235H592.426V517.401Z" fill="#B99980"/>
<g opacity="0.2">
<path d="M592.426 517.401H620.532C621.216 517.36 621.902 517.459 622.546 517.692C623.19 517.925 623.78 518.288 624.279 518.758C624.778 519.227 625.176 519.794 625.447 520.423C625.719 521.052 625.859 521.73 625.859 522.416C625.859 523.101 625.719 523.779 625.447 524.408C625.176 525.037 624.778 525.604 624.279 526.074C623.78 526.543 623.19 526.906 622.546 527.139C621.902 527.373 621.216 527.472 620.532 527.43H592.426V525.597H620.532C620.97 525.63 621.411 525.572 621.825 525.428C622.24 525.283 622.621 525.054 622.943 524.755C623.265 524.457 623.522 524.095 623.698 523.692C623.874 523.29 623.964 522.855 623.964 522.416C623.964 521.976 623.874 521.542 623.698 521.139C623.522 520.737 623.265 520.375 622.943 520.076C622.621 519.777 622.24 519.549 621.825 519.404C621.411 519.259 620.97 519.201 620.532 519.235H592.426V517.401Z" fill="white"/>
</g>
<path d="M586.889 536.671H622.788V528.2H586.889V536.671Z" fill="#B99980"/>
<path opacity="0.7" d="M586.889 536.671H622.788V528.2H586.889V536.671Z" fill="white"/>
<path d="M608.89 527.43H637.016C638.343 527.43 639.616 527.958 640.555 528.896C641.494 529.835 642.021 531.108 642.021 532.435C642.021 533.763 641.494 535.036 640.555 535.975C639.616 536.913 638.343 537.441 637.016 537.441H608.89V535.607H613.162C613.579 535.607 613.991 535.525 614.376 535.366C614.761 535.207 615.111 534.973 615.405 534.678C615.7 534.384 615.933 534.034 616.093 533.649C616.252 533.264 616.334 532.852 616.334 532.435C616.334 532.019 616.252 531.606 616.093 531.222C615.933 530.837 615.7 530.487 615.405 530.193C615.111 529.898 614.761 529.664 614.376 529.505C613.991 529.346 613.579 529.264 613.162 529.264H608.89V527.43Z" fill="#263238"/>
<g opacity="0.2">
<path d="M608.89 527.43H637.016C638.343 527.43 639.616 527.958 640.555 528.896C641.494 529.835 642.021 531.108 642.021 532.435C642.021 533.763 641.494 535.036 640.555 535.975C639.616 536.913 638.343 537.441 637.016 537.441H608.89V535.607H613.162C613.579 535.607 613.991 535.525 614.376 535.366C614.761 535.207 615.111 534.973 615.405 534.678C615.7 534.384 615.933 534.034 616.093 533.649C616.252 533.264 616.334 532.852 616.334 532.435C616.334 532.019 616.252 531.606 616.093 531.222C615.933 530.837 615.7 530.487 615.405 530.193C615.111 529.898 614.761 529.664 614.376 529.505C613.991 529.346 613.579 529.264 613.162 529.264H608.89V527.43Z" fill="white"/>
</g>
<path d="M585.038 527.43H613.163C614.49 527.43 615.763 527.958 616.702 528.896C617.641 529.835 618.168 531.108 618.168 532.435C618.168 533.763 617.641 535.036 616.702 535.975C615.763 536.913 614.49 537.441 613.163 537.441H585.038V535.607H613.163C613.579 535.607 613.992 535.525 614.377 535.366C614.761 535.207 615.111 534.973 615.406 534.678C615.7 534.384 615.934 534.034 616.093 533.649C616.253 533.264 616.335 532.852 616.335 532.435C616.335 532.019 616.253 531.606 616.093 531.222C615.934 530.837 615.7 530.487 615.406 530.193C615.111 529.898 614.761 529.664 614.377 529.505C613.992 529.346 613.579 529.264 613.163 529.264H585.038V527.43Z" fill="#263238"/>
<g opacity="0.4">
<path d="M585.038 527.43H613.163C614.49 527.43 615.763 527.958 616.702 528.896C617.641 529.835 618.168 531.108 618.168 532.435C618.168 533.763 617.641 535.036 616.702 535.975C615.763 536.913 614.49 537.441 613.163 537.441H585.038V535.607H613.163C613.579 535.607 613.992 535.525 614.377 535.366C614.761 535.207 615.111 534.973 615.406 534.678C615.7 534.384 615.934 534.034 616.093 533.649C616.253 533.264 616.335 532.852 616.335 532.435C616.335 532.019 616.253 531.606 616.093 531.222C615.934 530.837 615.7 530.487 615.406 530.193C615.111 529.898 614.761 529.664 614.377 529.505C613.992 529.346 613.579 529.264 613.163 529.264H585.038V527.43Z" fill="white"/>
</g>
<path d="M644.826 538.229H608.927V546.7H644.826V538.229Z" fill="#B99980"/>
<path opacity="0.7" d="M644.826 538.229H608.927V546.7H644.826V538.229Z" fill="white"/>
<path d="M646.659 537.441H618.552C617.868 537.399 617.183 537.498 616.539 537.732C615.894 537.965 615.305 538.328 614.806 538.797C614.307 539.267 613.909 539.834 613.637 540.463C613.366 541.092 613.225 541.77 613.225 542.455C613.225 543.14 613.366 543.818 613.637 544.448C613.909 545.077 614.307 545.643 614.806 546.113C615.305 546.583 615.894 546.945 616.539 547.179C617.183 547.412 617.868 547.511 618.552 547.47H646.659V545.636H618.552C618.114 545.67 617.674 545.612 617.259 545.467C616.845 545.322 616.464 545.094 616.142 544.795C615.82 544.496 615.563 544.134 615.387 543.732C615.211 543.329 615.121 542.894 615.121 542.455C615.121 542.016 615.211 541.581 615.387 541.179C615.563 540.776 615.82 540.414 616.142 540.115C616.464 539.817 616.845 539.588 617.259 539.443C617.674 539.298 618.114 539.241 618.552 539.274H646.659V537.441Z" fill="#B99980"/>
<path d="M622.806 537.441H594.699C594.015 537.399 593.33 537.498 592.686 537.732C592.041 537.965 591.452 538.328 590.953 538.797C590.454 539.267 590.056 539.834 589.784 540.463C589.512 541.092 589.372 541.77 589.372 542.455C589.372 543.14 589.512 543.818 589.784 544.448C590.056 545.077 590.454 545.643 590.953 546.113C591.452 546.583 592.041 546.945 592.686 547.179C593.33 547.412 594.015 547.511 594.699 547.47H622.806V545.636H618.534C617.732 545.575 616.983 545.214 616.436 544.624C615.889 544.034 615.586 543.259 615.586 542.455C615.586 541.651 615.889 540.876 616.436 540.286C616.983 539.697 617.732 539.335 618.534 539.274H622.806V537.441Z" fill="#B99980"/>
<g opacity="0.4">
<path d="M646.659 537.441H618.552C617.868 537.399 617.183 537.498 616.539 537.732C615.894 537.965 615.305 538.328 614.806 538.797C614.307 539.267 613.909 539.834 613.637 540.463C613.366 541.092 613.225 541.77 613.225 542.455C613.225 543.14 613.366 543.818 613.637 544.448C613.909 545.077 614.307 545.643 614.806 546.113C615.305 546.583 615.894 546.945 616.539 547.179C617.183 547.412 617.868 547.511 618.552 547.47H646.659V545.636H618.552C618.114 545.67 617.674 545.612 617.259 545.467C616.845 545.322 616.464 545.094 616.142 544.795C615.82 544.496 615.563 544.134 615.387 543.732C615.211 543.329 615.121 542.894 615.121 542.455C615.121 542.016 615.211 541.581 615.387 541.179C615.563 540.776 615.82 540.414 616.142 540.115C616.464 539.817 616.845 539.588 617.259 539.443C617.674 539.298 618.114 539.241 618.552 539.274H646.659V537.441Z" fill="white"/>
</g>
<path d="M403.562 415.039C410.249 413.04 416.665 410.225 422.666 406.66C424.393 405.582 425.96 404.267 427.323 402.755C427.657 402.367 427.963 401.957 428.24 401.527C421.695 378.682 415.076 368.671 401.197 367.626C390.636 381.23 403.562 415.039 403.562 415.039Z" fill="#263238"/>
<path opacity="0.2" d="M422.667 406.66C424.393 405.582 425.961 404.267 427.324 402.755C426.167 400.361 424.747 398.104 423.088 396.026C421.556 399.378 421.405 403.198 422.667 406.66Z" fill="black"/>
<path d="M646.88 654.984L657.734 642.938L629.205 617.985L618.351 630.03L646.88 654.984Z" fill="#FFC3BD"/>
<path opacity="0.2" d="M618.351 630.03L629.205 618.003L643.91 630.855L633.056 642.901L618.351 630.03Z" fill="black"/>
<path d="M652.307 637.584L636.484 646.751C636.21 646.906 636.002 647.155 635.898 647.451C635.793 647.748 635.8 648.072 635.916 648.365L641.416 661.932C641.565 662.263 641.782 662.56 642.052 662.802C642.322 663.044 642.64 663.228 642.986 663.34C643.331 663.452 643.696 663.491 644.057 663.454C644.418 663.416 644.768 663.304 645.083 663.124C650.583 659.824 653.022 657.954 659.971 653.957C664.261 651.481 674.088 646.623 679.992 643.176C685.896 639.729 682.834 633.697 679.992 634.614C667.579 638.647 660.612 638.079 655.075 637.107C654.125 636.959 653.153 637.127 652.307 637.584Z" fill="#263238"/>
<path d="M660.282 632.909C660.155 632.725 659.98 632.578 659.777 632.484C659.574 632.391 659.349 632.354 659.127 632.377C657.11 632.579 654.451 637.877 654.14 638.391C654.105 638.442 654.086 638.503 654.086 638.565C654.086 638.627 654.105 638.688 654.14 638.739C654.176 638.79 654.227 638.828 654.287 638.848C654.346 638.868 654.41 638.868 654.47 638.849C656.541 638.226 660.08 636.887 660.703 634.944C660.761 634.735 660.792 634.519 660.795 634.302C660.777 633.795 660.597 633.307 660.282 632.909ZM659.2 633.019C659.314 633.006 659.428 633.025 659.532 633.074C659.635 633.122 659.723 633.198 659.787 633.294C659.962 633.486 660.087 633.72 660.148 633.973C660.209 634.226 660.204 634.491 660.135 634.742C659.787 635.842 657.917 637.052 655.075 638.006C656.046 636.209 657.953 633.147 659.2 633.019Z" fill="#B99980"/>
<path d="M655.166 631.295C654.97 631.083 654.708 630.943 654.422 630.897C654.137 630.85 653.844 630.9 653.59 631.039C653.325 631.149 653.087 631.316 652.894 631.528C652.701 631.741 652.556 631.993 652.471 632.267C651.738 634.485 654.066 638.537 654.158 638.702C654.185 638.752 654.224 638.794 654.273 638.823C654.321 638.852 654.377 638.867 654.433 638.867C654.49 638.867 654.545 638.852 654.593 638.823C654.642 638.794 654.681 638.752 654.708 638.702C655.45 637.107 655.82 635.364 655.79 633.605C655.846 632.787 655.627 631.974 655.166 631.295ZM653.076 632.469C653.132 632.279 653.23 632.104 653.364 631.958C653.497 631.812 653.662 631.698 653.846 631.625C654.323 631.424 654.561 631.625 654.69 631.735C655.515 632.67 655.13 636.062 654.415 637.841C653.828 636.686 652.563 633.972 653.076 632.542V632.469Z" fill="#B99980"/>
<path d="M415.589 386.731C412.454 404.405 420.063 421.401 434.071 432.072C435.216 432.901 436.567 433.402 437.976 433.52C437.976 433.52 438.067 433.52 437.976 433.685C438.376 433.212 438.87 432.826 439.425 432.55C439.981 432.274 440.587 432.115 441.206 432.082C441.825 432.05 442.445 432.144 443.026 432.359C443.608 432.575 444.139 432.907 444.587 433.335C445.036 433.764 445.392 434.279 445.633 434.85C445.875 435.421 445.998 436.036 445.993 436.656C445.989 437.276 445.857 437.889 445.607 438.456C445.358 439.024 444.994 439.534 444.54 439.956L443.714 440.928C442.071 442.58 440.059 443.82 437.845 444.546C435.63 445.273 433.275 445.465 430.972 445.108C422.446 443.879 416.763 439.186 411.354 433.337C405.185 426.511 400.74 418.306 398.392 409.41C396.044 400.513 395.862 391.184 397.86 382.202C401.215 370.34 418.211 374.703 415.626 386.731H415.589Z" fill="#E9B376"/>
<path d="M422.208 390.636C424.29 399.558 425.761 408.612 426.608 417.734C428.185 431.009 429.34 444.154 430.861 466.101L364.399 476.698C362.767 457.759 357.212 436.766 338.602 396.521C337.547 394.431 336.973 392.131 336.924 389.79C336.874 387.449 337.349 385.127 338.315 382.994C339.28 380.86 340.711 378.971 342.503 377.463C344.294 375.955 346.401 374.868 348.668 374.282C351.253 373.603 354.021 372.925 356.863 372.338C366.796 370.026 376.881 368.427 387.042 367.553C390.379 367.333 393.844 367.204 397.163 367.149C409.153 366.856 419.989 378.975 422.208 390.636Z" fill="#263238"/>
<path d="M453.211 429.212L452.515 433.539C452.387 434.343 452.069 435.106 451.588 435.762C451.106 436.419 450.475 436.952 449.746 437.315L442.852 440.744C441.49 441.421 439.985 441.762 438.464 441.74C436.943 441.717 435.449 441.332 434.107 440.616L432.438 439.717C433.08 432.383 439.13 425.05 439.13 425.05L440.634 422.74C440.928 422.261 441.314 421.845 441.77 421.516C442.226 421.188 442.743 420.953 443.29 420.825C443.837 420.697 444.404 420.679 444.958 420.772C445.513 420.864 446.043 421.066 446.519 421.364L451.084 424.261C451.884 424.788 452.512 425.538 452.89 426.418C453.268 427.297 453.38 428.269 453.211 429.212Z" fill="#EBB376"/>
<path d="M367.809 542.3C392.231 561.331 450.7 554.822 503.888 547.433C510.012 557.095 517.365 565.92 525.761 573.688C549.34 596.185 581.022 615.088 601.905 626.254C614.941 633.257 623.778 637.254 623.778 637.254L638.996 620.936C638.996 620.936 610.504 595.268 578.987 567.29C557.572 548.222 534.745 528.054 518.593 514.119C517.702 513.374 516.683 512.796 515.586 512.414C513.961 511.873 512.283 511.511 510.58 511.333L507.005 510.838L504.09 510.452C486.104 507.941 446.776 502.99 446.776 502.99L430.275 461.903L362.822 464.103C362.822 464.103 346.761 525.909 367.809 542.3Z" fill="#B99980"/>
<path d="M645.174 622.66L625.923 643.213L616.7 636.704L637.62 614.904L645.174 622.66Z" fill="#263238"/>
<path opacity="0.2" d="M497.361 510.214C505.723 531.85 515.202 553.036 525.762 573.688C549.34 596.185 581.022 615.088 601.905 626.253C597.179 605.581 589.458 585.711 578.987 567.271C576.053 562.119 572.79 556.875 569.178 551.65C551.375 525.982 530.272 516.118 515.586 512.396C513.752 511.956 512.157 511.589 510.581 511.314C508.124 510.874 505.942 510.599 504.09 510.434C501.857 510.183 499.607 510.109 497.361 510.214Z" fill="black"/>
<path d="M584.708 641.416L599.999 636.081L586.981 600.475L571.69 605.81L584.708 641.416Z" fill="#FFC3BD"/>
<path opacity="0.2" d="M571.69 605.829L587 600.493L593.692 618.846L578.382 624.182L571.69 605.829Z" fill="black"/>
<path d="M597.816 628.875L579.482 629.334C579.164 629.327 578.856 629.441 578.618 629.651C578.38 629.862 578.23 630.154 578.198 630.47L576.475 644.991C576.447 645.358 576.495 645.726 576.618 646.072C576.74 646.419 576.933 646.736 577.185 647.004C577.437 647.271 577.742 647.483 578.081 647.626C578.419 647.769 578.784 647.839 579.152 647.833C585.532 647.558 588.594 647.1 596.643 646.916C601.593 646.788 612.557 647.246 619.396 647.081C626.235 646.916 626.418 640.133 623.558 639.601C610.724 637.162 604.893 633.312 600.511 629.81C599.748 629.196 598.796 628.866 597.816 628.875Z" fill="#263238"/>
<path d="M607.075 628.509C607.05 628.289 606.968 628.08 606.836 627.903C606.703 627.725 606.527 627.587 606.323 627.5C604.49 626.693 599.594 629.994 598.989 630.379C598.94 630.413 598.902 630.46 598.879 630.516C598.857 630.571 598.85 630.632 598.861 630.69C598.87 630.752 598.898 630.81 598.941 630.855C598.983 630.901 599.039 630.933 599.099 630.947C601.208 631.387 604.966 631.919 606.433 630.507C606.581 630.359 606.711 630.192 606.818 630.012C607.066 629.552 607.156 629.024 607.075 628.509ZM606.066 628.087C606.172 628.132 606.262 628.206 606.327 628.3C606.392 628.394 606.429 628.504 606.433 628.619C606.502 628.87 606.502 629.134 606.434 629.386C606.367 629.637 606.233 629.866 606.048 630.049C605.223 630.855 603.005 631.002 600.053 630.47C601.758 629.37 604.911 627.592 606.066 628.087Z" fill="#B99980"/>
<path d="M603.353 624.64C603.289 624.354 603.128 624.099 602.898 623.918C602.667 623.738 602.381 623.643 602.088 623.65C601.803 623.613 601.514 623.644 601.243 623.739C600.973 623.835 600.728 623.993 600.529 624.2C598.806 625.777 598.898 630.452 598.916 630.635C598.914 630.692 598.928 630.749 598.958 630.797C598.987 630.846 599.03 630.886 599.081 630.91C599.128 630.938 599.182 630.952 599.237 630.952C599.292 630.952 599.345 630.938 599.393 630.91C600.809 629.867 601.974 628.52 602.803 626.968C603.241 626.276 603.435 625.456 603.353 624.64ZM600.951 624.64C601.092 624.502 601.263 624.397 601.45 624.334C601.638 624.27 601.837 624.25 602.033 624.273C602.565 624.273 602.693 624.567 602.73 624.768C603.005 625.997 601.025 628.784 599.558 629.994C599.539 628.71 599.796 625.74 600.951 624.658V624.64Z" fill="#B99980"/>
<path opacity="0.3" d="M367.809 542.3C392.231 561.331 450.7 554.822 503.888 547.433C510.012 557.095 517.365 565.92 525.761 573.688C549.34 596.185 581.022 615.088 601.905 626.254C614.941 633.257 623.778 637.254 623.778 637.254L638.996 620.936C638.996 620.936 610.504 595.268 578.987 567.29C557.572 548.222 534.745 528.054 518.593 514.119C517.702 513.374 516.683 512.796 515.586 512.414C513.961 511.873 512.283 511.511 510.58 511.333L507.005 510.838L504.09 510.452C486.104 507.941 446.776 502.99 446.776 502.99L430.275 461.903L362.822 464.103C362.822 464.103 346.761 525.909 367.809 542.3Z" fill="black"/>
<path d="M368.873 479.65C368.873 479.65 470.263 469.493 507.794 473.802C544.463 478 594.204 608.781 594.204 608.781L572.35 616.353C530.767 569.38 507.189 535.406 497.361 510.214C408.329 543.381 375.858 540.723 375.858 540.723L368.873 479.65Z" fill="#B99980"/>
<path opacity="0.3" d="M368.873 479.65C368.873 479.65 470.263 469.493 507.794 473.802C544.463 478 594.204 608.781 594.204 608.781L572.35 616.353C530.767 569.38 507.189 535.406 497.361 510.214C408.329 543.381 375.858 540.723 375.858 540.723L368.873 479.65Z" fill="black"/>
<path d="M598.752 612.264L572.001 621.01L567.033 610.871L595.855 601.813L598.752 612.264Z" fill="#263238"/>
<path opacity="0.2" d="M497.361 510.214C497.361 510.214 494.574 501.927 488.835 500.57C483.097 499.213 434.969 499.763 434.969 499.763L497.361 510.214Z" fill="black"/>
<path opacity="0.2" d="M363.775 409.447C363.775 409.447 371.109 425.307 363.775 430.734C356.442 436.161 350.629 411.097 363.775 409.447Z" fill="black"/>
<path d="M397.566 377.948C397.566 377.948 414.874 397.53 432.402 469.621L440.029 461.847C440.029 461.847 443.274 450.957 434.932 449.27C434.932 449.27 438.306 435.757 430.825 431.504C430.825 431.504 429.267 413.921 423.4 408.274C423.245 405.893 422.706 403.552 421.805 401.343C421.366 400.11 420.655 398.992 419.725 398.072C418.795 397.151 417.67 396.452 416.432 396.026C416.432 396.026 410.419 371.055 399.931 366.691C389.444 362.327 397.566 377.948 397.566 377.948Z" fill="#B99980"/>
<path opacity="0.2" d="M434.969 449.197L430.862 455.082C430.862 455.082 435.923 455.082 434.969 449.197Z" fill="black"/>
<path opacity="0.2" d="M430.862 431.504L425.802 438.196C426.614 438.195 427.416 438.006 428.143 437.644C428.871 437.282 429.505 436.756 429.995 436.107C430.485 435.459 430.819 434.706 430.969 433.907C431.119 433.109 431.083 432.286 430.862 431.504Z" fill="black"/>
<path opacity="0.2" d="M423.528 408.274L418.816 413.389C418.816 413.389 424.078 412.088 423.528 408.274Z" fill="black"/>
<path opacity="0.2" d="M413.957 391.333L410.84 396.026C411.788 395.672 412.599 395.027 413.159 394.185C413.719 393.342 413.998 392.344 413.957 391.333Z" fill="black"/>
<path d="M473.49 389.792L468.228 387.189L449.893 393.349L424.225 388.234L419.568 407.705C419.568 407.705 419.568 429.083 420.796 429.248C422.024 429.413 449.728 429.248 449.728 429.248L463.259 419.494L473.49 389.792Z" fill="#E0E0E0"/>
<path d="M417.624 390.068L408.988 434.804L443.604 436.711L466.962 428.809L476.716 386.694L449.984 395.275L417.624 390.068Z" fill="#B99980"/>
<path opacity="0.5" d="M417.624 390.068L408.988 434.804L443.604 436.711L466.962 428.809L476.716 386.694L449.984 395.275L417.624 390.068Z" fill="white"/>
<path opacity="0.2" d="M449.984 395.275L443.604 436.711L408.988 434.822L417.624 390.068L449.984 395.275Z" fill="white"/>
<path d="M397.566 377.949C397.566 377.949 408.567 365.811 399.657 359.431C390.746 353.05 344.891 354.737 342.819 363.556C340.748 372.375 397.566 377.949 397.566 377.949Z" fill="#B99980"/>
<path opacity="0.2" d="M397.566 377.949C397.566 377.949 408.567 365.811 399.657 359.431C390.746 353.05 344.891 354.737 342.819 363.556C340.748 372.375 397.566 377.949 397.566 377.949Z" fill="black"/>
<path d="M356.863 372.191C345.863 374.648 392.799 384.384 392.799 384.384C392.799 384.384 416.891 358.844 356.863 372.191Z" fill="#EBB376"/>
<path d="M361.19 338.016C363.867 347.843 367.149 365.848 360.769 372.43C360.769 372.43 364.435 376.573 389.865 383.229C395.586 375.015 391.314 372.393 391.314 372.393C380.166 369.79 379.836 361.649 381.157 354.059L361.19 338.016Z" fill="#EBB376"/>
<path opacity="0.2" d="M369.276 344.543L381.102 354.004C380.75 355.816 380.572 357.658 380.57 359.504C376.335 358.899 370.23 354.315 369.46 349.915C369.072 348.151 369.009 346.33 369.276 344.543Z" fill="black"/>
<path d="M360.952 298.413C360.952 298.413 356.057 284.937 345.056 287.596C334.055 290.254 331.452 300.43 335.1 312.586C338.749 324.742 333.835 327.253 333.835 327.253C333.835 327.253 346.67 329.344 347.806 314.639C348.943 299.935 356.497 304.537 356.497 304.537L360.952 298.413Z" fill="#263238"/>
<path d="M361.612 313.924C360.072 330.004 359.082 336.769 365.682 346.596C375.601 361.374 395.274 360.751 401.471 345.698C407.063 332.149 408.64 308.13 394.376 298.542C391.381 296.381 387.863 295.061 384.187 294.718C380.51 294.375 376.809 295.021 373.467 296.591C370.124 298.16 367.262 300.595 365.178 303.642C363.093 306.69 361.862 310.24 361.612 313.924Z" fill="#EBB376"/>
<path d="M380.35 322.102C380.167 323.44 380.698 324.668 381.542 324.852C382.385 325.035 383.229 324.082 383.375 322.743C383.522 321.405 383.027 320.158 382.184 319.975C381.34 319.791 380.552 320.745 380.35 322.102Z" fill="#263238"/>
<path d="M396.906 325.054C396.704 326.392 397.236 327.62 398.079 327.804C398.923 327.987 399.766 327.034 399.913 325.695C400.06 324.357 399.565 323.11 398.721 322.927C397.878 322.743 397.089 323.697 396.906 325.054Z" fill="#263238"/>
<path d="M398.373 322.927L401.618 322.651C401.618 322.651 399.693 324.833 398.373 322.927Z" fill="#263238"/>
<path d="M391.46 326.942C392.189 330.257 393.335 333.467 394.871 336.494C394.134 336.854 393.325 337.041 392.506 337.041C391.686 337.041 390.877 336.854 390.14 336.494L391.46 326.942Z" fill="#D58745"/>
<path d="M382.037 339.831C382.727 340.104 383.438 340.319 384.164 340.473C384.213 340.486 384.266 340.489 384.316 340.48C384.367 340.471 384.416 340.451 384.458 340.421C384.5 340.391 384.535 340.353 384.56 340.308C384.585 340.263 384.6 340.213 384.604 340.161C384.62 340.054 384.595 339.946 384.534 339.857C384.472 339.768 384.379 339.707 384.274 339.684C382.623 339.339 381.07 338.63 379.729 337.609C378.387 336.588 377.29 335.28 376.518 333.781C376.481 333.681 376.406 333.601 376.31 333.556C376.214 333.512 376.105 333.507 376.005 333.542C375.911 333.59 375.839 333.672 375.805 333.771C375.771 333.87 375.777 333.979 375.822 334.074C377.125 336.684 379.335 338.731 382.037 339.831Z" fill="#263238"/>
<path d="M379.103 313.154C379.196 313.204 379.3 313.23 379.406 313.23C379.511 313.23 379.615 313.204 379.708 313.154C380.514 312.625 381.44 312.306 382.4 312.226C383.361 312.146 384.327 312.307 385.209 312.696C385.298 312.742 385.397 312.769 385.497 312.775C385.597 312.781 385.698 312.766 385.793 312.732C385.887 312.698 385.974 312.644 386.047 312.575C386.12 312.506 386.178 312.422 386.217 312.329C386.292 312.131 386.292 311.912 386.218 311.713C386.144 311.514 386 311.349 385.814 311.248C384.706 310.753 383.493 310.542 382.284 310.631C381.074 310.721 379.906 311.109 378.883 311.761C378.711 311.88 378.592 312.061 378.551 312.266C378.51 312.472 378.55 312.685 378.663 312.861C378.773 313.005 378.928 313.109 379.103 313.154Z" fill="#263238"/>
<path d="M404.863 317.61C404.952 317.651 405.049 317.672 405.147 317.672C405.245 317.672 405.342 317.651 405.431 317.61C405.527 317.568 405.613 317.508 405.685 317.432C405.757 317.357 405.813 317.268 405.851 317.171C405.888 317.074 405.906 316.97 405.904 316.866C405.901 316.762 405.877 316.66 405.835 316.564C405.406 315.364 404.707 314.278 403.791 313.391C402.876 312.504 401.768 311.839 400.554 311.449C400.456 311.425 400.355 311.422 400.255 311.44C400.156 311.458 400.062 311.497 399.979 311.554C399.896 311.611 399.825 311.686 399.773 311.772C399.721 311.858 399.687 311.954 399.674 312.054C399.64 312.265 399.684 312.48 399.799 312.66C399.914 312.839 400.092 312.97 400.298 313.026C401.252 313.35 402.121 313.886 402.839 314.595C403.556 315.303 404.104 316.164 404.441 317.115C404.47 317.223 404.523 317.324 404.596 317.41C404.669 317.496 404.76 317.564 404.863 317.61Z" fill="#263238"/>
<path d="M381.836 319.975L385.081 319.7C385.081 319.7 383.193 321.882 381.836 319.975Z" fill="#263238"/>
<path d="M378.315 301.585C377.575 305.024 376.072 308.252 373.918 311.032C371.763 313.812 369.011 316.072 365.866 317.646L363.831 329.802L361.338 337.227C361.338 337.227 348.76 334.551 350.924 313.393C352.39 299.165 359.064 295.058 363.758 293.811C366.357 293.214 368.793 292.049 370.89 290.401C373.915 287.926 380.057 285.506 391.351 289.759C408.017 296.03 403.214 310.037 403.214 310.037C401.236 306.853 398.494 304.213 395.238 302.355C390.655 300.008 382.624 298.853 378.315 301.585Z" fill="#263238"/>
<path d="M354.388 325.915C355.508 329.161 357.868 331.831 360.952 333.341C364.931 335.174 367.497 331.379 366.856 326.923C366.287 322.908 363.519 317.096 359.284 317.151C355.048 317.206 352.958 321.808 354.388 325.915Z" fill="#EBB376"/>
<path d="M380.368 478.532L345.129 469.474C345.129 469.474 338.693 460.582 347.494 453.762C347.494 453.762 339.005 442.578 347.494 431.467L350.666 402.682C350.666 402.682 362.822 396.008 360.475 383.119C359.901 380.212 358.814 377.431 357.266 374.905L373.382 379.782L376.738 380.79C385.025 393.313 380.368 478.532 380.368 478.532Z" fill="#B99980"/>
<path opacity="0.2" d="M375.106 380.827C370.269 381.9 365.37 382.678 360.438 383.156C359.864 380.249 358.778 377.468 357.23 374.942L373.346 379.819C374.024 380.13 374.519 380.46 375.106 380.827Z" fill="black"/>
<path opacity="0.2" d="M347.494 453.798C347.494 453.798 356.423 461.371 372.979 460.637C372.979 460.637 354.297 452.057 347.494 453.798Z" fill="black"/>
<path opacity="0.2" d="M347.494 431.504C347.494 431.504 368.579 439.919 378.901 437.261C378.901 437.261 357.67 428.112 347.494 431.504Z" fill="black"/>
<path opacity="0.2" d="M350.667 416.964C350.667 416.964 372.668 422.63 378.902 419.165C378.902 419.165 358.184 412.968 350.667 416.964Z" fill="black"/>
<path opacity="0.2" d="M378.901 399.913C378.901 399.913 361.649 396.448 353.948 401.343C353.948 401.343 373.823 403.745 378.901 399.913Z" fill="black"/>
<path d="M350.667 362.107C358 365.463 376.757 380.809 376.757 380.809C376.757 380.809 343.021 377.435 341.023 372.851C339.024 368.268 338.217 356.387 350.667 362.107Z" fill="#B99980"/>
<path d="M431.082 420.393L426.187 419.311C425.276 419.106 424.33 419.122 423.427 419.358C422.524 419.594 421.691 420.043 420.998 420.668L414.361 426.572C413.071 427.733 412.078 429.186 411.465 430.81C410.853 432.433 410.639 434.18 410.841 435.904L411.079 438.086C419.091 440.451 429.414 437.096 429.414 437.096L432.475 436.472C433.109 436.364 433.714 436.131 434.256 435.787C434.798 435.442 435.267 434.993 435.634 434.466C436 433.938 436.259 433.343 436.393 432.715C436.528 432.087 436.536 431.438 436.417 430.807L435.262 424.702C435.045 423.661 434.537 422.704 433.797 421.941C433.057 421.178 432.115 420.641 431.082 420.393Z" fill="#EBB376"/>
<path d="M356.424 403.965C359.733 416.254 364.202 428.201 369.772 439.644C371.643 443.297 373.718 446.841 375.987 450.26L374.795 448.977C374.282 448.555 373.732 448.518 373.842 448.573C375.995 448.694 378.147 448.318 380.131 447.473C384.22 445.946 388.185 444.107 391.993 441.973C400.097 437.646 408.164 432.531 415.828 427.489C416.762 426.711 417.966 426.335 419.176 426.445C420.387 426.555 421.504 427.142 422.282 428.075C423.06 429.009 423.435 430.213 423.325 431.424C423.215 432.634 422.629 433.751 421.695 434.529C410.566 445.53 380.057 474.407 364.033 461.481C351.199 446.226 343.571 427.36 338.639 408.182C336.256 396.356 353.307 392.305 356.479 403.929L356.424 403.965Z" fill="#E9B376"/>
<path d="M343.534 376.573C332.185 384.604 331.654 396.576 337.777 419.549C345.973 423.656 365.884 418.468 365.884 418.468C365.884 418.468 359.595 382.807 343.534 376.573Z" fill="#263238"/>
<path d="M354.627 524.368C353.142 520.61 338.951 516.136 330.609 513.789C336.971 510.727 338.346 503.284 338.346 503.284C330.59 502.44 324.595 510.746 324.595 510.746C323.495 502.404 313.594 500.295 313.594 500.295C313.413 502.857 313.874 505.423 314.938 507.76C316.001 510.098 317.631 512.133 319.681 513.679C311.266 516.374 294.801 521.93 294.471 524.368C294.006 525 293.755 525.765 293.756 526.55V543.656C293.756 544.629 294.143 545.561 294.83 546.249C295.518 546.937 296.451 547.323 297.423 547.323H351.492C352.464 547.323 353.397 546.937 354.085 546.249C354.772 545.561 355.159 544.629 355.159 543.656V526.55C355.214 525.785 355.028 525.022 354.627 524.368Z" fill="#B99980"/>
<path opacity="0.3" d="M355.342 526.623V543.73C355.342 544.702 354.955 545.635 354.268 546.322C353.58 547.01 352.647 547.396 351.675 547.396H297.533C296.56 547.396 295.628 547.01 294.94 546.322C294.252 545.635 293.866 544.702 293.866 543.73V526.623C293.865 525.838 294.115 525.074 294.581 524.442C294.893 522.003 311.375 516.448 319.791 513.771C318.824 513.149 317.948 512.396 317.188 511.534C314.587 508.437 313.275 504.46 313.521 500.423C313.521 500.423 323.385 502.513 324.521 510.856C324.521 510.856 330.517 502.55 338.272 503.394C337.397 507.47 334.971 511.047 331.507 513.368C331.195 513.566 330.871 513.744 330.535 513.899H330.663L331.03 514.009L331.507 514.156C339.941 516.558 353.123 520.848 354.553 524.442C355.045 525.064 355.322 525.83 355.342 526.623Z" fill="white"/>
<path opacity="0.2" d="M321.001 514.578C321.001 514.578 297.973 521.911 298.156 523.91C298.339 525.908 321.001 515.659 321.001 515.659C321.001 515.659 318.104 518.391 319.736 519.656C321.368 520.921 322.449 516.924 322.449 516.924C322.449 516.924 321.899 523.837 323.714 524.258C325.53 524.68 327.895 518.868 321.001 514.578Z" fill="black"/>
<path opacity="0.2" d="M342.489 518.391C342.947 519.473 331.341 515.219 330.791 515.219C330.241 515.219 333.963 517.474 332.148 518.024C330.333 518.574 327.344 515.219 326.813 515.403C326.281 515.586 329.893 519.198 330.076 521.38C330.076 521.38 325.804 514.376 319.736 513.771C318.788 513.145 317.931 512.392 317.187 511.534C318.504 512.497 320.069 513.064 321.697 513.166C321.697 513.166 317.297 509.279 319.204 507.867C321.111 506.455 322.871 512.799 322.871 512.799L324.558 510.856V512.084C324.558 512.084 329.875 507.812 331.231 508.82C332.588 509.829 325.603 513.184 325.603 513.184C327.568 513.547 329.577 513.609 331.561 513.367C331.25 513.566 330.925 513.744 330.59 513.899H330.718L331.085 514.009L331.561 514.156C334.348 515.018 342.104 517.493 342.489 518.391Z" fill="black"/>
<path d="M307.122 493.2V487.699H297.588V493.2C297.587 493.925 297.434 494.641 297.141 495.304C296.847 495.967 296.419 496.562 295.883 497.05C295.341 497.535 294.908 498.128 294.611 498.791C294.314 499.455 294.16 500.173 294.16 500.9V544.665C294.157 545.039 294.23 545.409 294.373 545.754C294.517 546.099 294.728 546.412 294.995 546.674C295.262 546.935 295.579 547.141 295.927 547.278C296.274 547.414 296.646 547.48 297.02 547.47H307.874C308.607 547.465 309.308 547.172 309.826 546.654C310.344 546.136 310.638 545.434 310.642 544.701V500.937C310.641 500.212 310.488 499.495 310.195 498.832C309.901 498.17 309.473 497.575 308.937 497.087C308.374 496.606 307.921 496.011 307.608 495.34C307.295 494.67 307.129 493.94 307.122 493.2Z" fill="#B99980"/>
<path opacity="0.6" d="M310.551 514.688V500.937C310.549 500.212 310.397 499.495 310.103 498.832C309.81 498.169 309.381 497.575 308.846 497.086C308.304 496.602 307.87 496.008 307.573 495.345C307.276 494.682 307.123 493.963 307.122 493.236V487.736H297.588V493.236C297.587 493.961 297.434 494.678 297.141 495.341C296.847 496.003 296.419 496.598 295.883 497.086C295.341 497.571 294.908 498.164 294.611 498.828C294.314 499.491 294.16 500.21 294.16 500.937V514.688H310.551Z" fill="white"/>
<path opacity="0.6" d="M294.16 531.849V544.683C294.16 545.055 294.234 545.424 294.379 545.767C294.523 546.11 294.735 546.42 295.002 546.68C295.268 546.94 295.584 547.143 295.931 547.279C296.277 547.415 296.648 547.48 297.02 547.47H307.874C308.607 547.465 309.308 547.172 309.826 546.654C310.344 546.135 310.638 545.434 310.642 544.701V531.867L294.16 531.849Z" fill="white"/>
<path d="M307.397 486.287H297.331C296.997 486.287 296.726 486.558 296.726 486.892V489.973C296.726 490.307 296.997 490.578 297.331 490.578H307.397C307.731 490.578 308.002 490.307 308.002 489.973V486.892C308.002 486.558 307.731 486.287 307.397 486.287Z" fill="#B99980"/>
<path d="M289.997 547.47H271.534L269.078 517.199H292.454L289.997 547.47Z" fill="#263238"/>
<path opacity="0.6" d="M286.275 530.602C286.275 531.69 285.953 532.753 285.348 533.658C284.744 534.562 283.885 535.267 282.88 535.684C281.875 536.1 280.769 536.209 279.702 535.997C278.635 535.784 277.655 535.261 276.885 534.491C276.116 533.722 275.592 532.742 275.38 531.675C275.168 530.608 275.277 529.502 275.693 528.497C276.109 527.492 276.814 526.633 277.719 526.029C278.623 525.424 279.687 525.102 280.775 525.102C282.234 525.102 283.633 525.681 284.664 526.713C285.696 527.744 286.275 529.143 286.275 530.602Z" fill="white"/>
<path d="M293.481 517.988H268.051L270.508 515.238H291.024L293.481 517.988Z" fill="#263238"/>
<path opacity="0.6" d="M293.481 517.988H268.051L270.508 515.238H291.024L293.481 517.988Z" fill="white"/>
<path d="M230.117 526.788H163.434V573.395H230.117V526.788Z" fill="#263238"/>
<path d="M142.001 516.228V663.601H234.023V516.228H142.001ZM223.994 559.772H194.658V542.134C194.658 540.16 195.443 538.267 196.839 536.871C198.235 535.475 200.128 534.691 202.102 534.691H216.495C218.45 534.719 220.315 535.516 221.687 536.909C223.06 538.302 223.829 540.179 223.829 542.134L223.994 559.772Z" fill="#B99980"/>
<path opacity="0.6" d="M142.001 516.228V663.601H234.023V516.228H142.001ZM223.994 559.772H194.658V542.134C194.658 540.16 195.443 538.267 196.839 536.871C198.235 535.475 200.128 534.691 202.102 534.691H216.495C218.45 534.719 220.315 535.516 221.687 536.909C223.06 538.302 223.829 540.179 223.829 542.134L223.994 559.772Z" fill="white"/>
<path opacity="0.4" d="M181.457 516.228H142.001V663.601H181.457V516.228Z" fill="white"/>
<path d="M236.186 508.454H139.618V522.7H236.186V508.454Z" fill="#B99980"/>
<path opacity="0.2" d="M184.189 508.454H139.618V522.7H184.189V508.454Z" fill="white"/>
</svg>
