<svg width="226" height="141" viewBox="0 0 226 141" fill="none" xmlns="http://www.w3.org/2000/svg">
<path d="M31 0H194V141L112.5 120.5L31 141V0Z" fill="#987B59"/>
<path d="M58.4941 79.2168V64.1562C58.4941 63.7122 58.5085 63.1035 58.5371 62.3301C58.5658 61.5423 58.6016 60.6973 58.6445 59.7949C58.6875 58.8926 58.7233 57.9759 58.752 57.0449C58.7806 56.1139 58.7949 55.276 58.7949 54.5312C58.7949 53.5286 58.752 52.7982 58.666 52.3398C58.6374 52.0677 58.5228 51.8529 58.3223 51.6953C58.1361 51.5234 57.8997 51.3945 57.6133 51.3086C57.3411 51.2083 57.026 51.1439 56.668 51.1152C56.3242 51.0723 55.9876 51.0365 55.6582 51.0078C55.3431 50.9648 55.0423 50.929 54.7559 50.9004C54.4837 50.8574 54.2689 50.793 54.1113 50.707C53.9251 50.6068 53.832 50.485 53.832 50.3418C53.832 50.2272 53.8392 50.1484 53.8535 50.1055C53.8822 50.0625 53.9251 50.0267 53.9824 49.998C54.1543 49.9408 54.319 49.9049 54.4766 49.8906C54.6484 49.862 54.7988 49.8477 54.9277 49.8477H55.7441C56.3887 49.8477 56.9401 49.862 57.3984 49.8906C57.8711 49.9049 58.3079 49.9336 58.709 49.9766C59.11 50.0052 59.5039 50.0339 59.8906 50.0625C60.2773 50.0768 60.7142 50.084 61.2012 50.084C61.7311 50.084 62.2181 50.0553 62.6621 49.998C63.1204 49.9408 63.5501 49.8763 63.9512 49.8047C64.3665 49.7331 64.7604 49.6686 65.1328 49.6113C65.5195 49.554 65.9062 49.5254 66.293 49.5254H67.0664C67.224 49.5254 67.3958 49.5397 67.582 49.5684C67.7682 49.597 67.8613 49.7044 67.8613 49.8906C67.8613 50.1341 67.6966 50.306 67.3672 50.4062C67.1237 50.4779 66.8372 50.5423 66.5078 50.5996C66.1927 50.6426 65.8346 50.7428 65.4336 50.9004C65.0612 50.9863 64.7533 51.0794 64.5098 51.1797C64.2806 51.2799 64.1087 51.3587 63.9941 51.416C63.8366 51.5163 63.6934 51.6452 63.5645 51.8027C63.4499 51.9603 63.3926 52.1895 63.3926 52.4902V78.4004C63.3926 78.7155 63.4785 78.959 63.6504 79.1309C63.8223 79.3027 64.0371 79.4316 64.2949 79.5176C64.5671 79.6035 64.8535 79.6536 65.1543 79.668C65.4694 79.6823 65.763 79.6895 66.0352 79.6895C66.3503 79.6895 66.7943 79.6751 67.3672 79.6465C67.9401 79.6178 68.5417 79.5749 69.1719 79.5176C69.8021 79.4603 70.4108 79.3887 70.998 79.3027C71.5996 79.2025 72.0866 79.0879 72.459 78.959C72.9603 78.7871 73.4186 78.6152 73.834 78.4434C74.2637 78.2572 74.6217 78.028 74.9082 77.7559C74.9512 77.7272 75.0228 77.6699 75.123 77.584C75.2233 77.4837 75.3307 77.3691 75.4453 77.2402C75.5742 77.097 75.696 76.9466 75.8105 76.7891C75.9251 76.6315 76.0254 76.474 76.1113 76.3164C76.1973 76.2018 76.2689 76.1016 76.3262 76.0156C76.3978 75.9297 76.4622 75.8581 76.5195 75.8008C76.5768 75.7292 76.6484 75.6074 76.7344 75.4355C76.8203 75.2637 76.9134 75.0703 77.0137 74.8555C77.1283 74.6406 77.2428 74.4258 77.3574 74.2109C77.472 73.9818 77.5866 73.7669 77.7012 73.5664C77.8014 73.4375 77.8945 73.3301 77.9805 73.2441C78.0807 73.1582 78.2096 73.1152 78.3672 73.1152C78.5247 73.1152 78.6107 73.2083 78.625 73.3945C78.6536 73.5664 78.668 73.7383 78.668 73.9102C78.668 74.2539 78.625 74.6048 78.5391 74.9629C78.4674 75.3066 78.3815 75.6504 78.2812 75.9941C78.181 76.3379 78.0736 76.6816 77.959 77.0254C77.8444 77.3691 77.7585 77.7129 77.7012 78.0566C77.6296 78.3861 77.5794 78.7298 77.5508 79.0879C77.5365 79.4316 77.5007 79.7539 77.4434 80.0547C77.4004 80.3411 77.3073 80.5775 77.1641 80.7637C77.0352 80.9499 76.8203 81.043 76.5195 81.043H61.8242C60.9362 81.043 60.1914 81.0573 59.5898 81.0859C59.0026 81.1289 58.4655 81.1719 57.9785 81.2148C57.4915 81.2721 57.0046 81.3151 56.5176 81.3438C56.0449 81.3867 55.4863 81.4082 54.8418 81.4082C54.5983 81.4082 54.3906 81.3867 54.2188 81.3438C54.0612 81.3008 53.9323 81.1862 53.832 81C53.8177 80.9427 53.8034 80.8997 53.7891 80.8711C53.7747 80.8424 53.7676 80.7493 53.7676 80.5918C53.7676 80.4056 53.8464 80.2767 54.0039 80.2051C54.1758 80.1191 54.3047 80.0618 54.3906 80.0332C54.5482 80.0046 54.7845 79.9902 55.0996 79.9902C55.4147 79.9759 55.7012 79.9544 55.959 79.9258C56.0879 79.9115 56.2526 79.89 56.4531 79.8613C56.6536 79.8327 56.8685 79.7897 57.0977 79.7324C57.3411 79.6751 57.5846 79.6035 57.8281 79.5176C58.0716 79.4316 58.2936 79.3314 58.4941 79.2168ZM84.9844 77.8848V53.6719C84.9844 53.0703 84.877 52.6191 84.6621 52.3184C84.4473 52.0033 84.1751 51.7812 83.8457 51.6523C83.5306 51.5091 83.1868 51.4303 82.8145 51.416C82.4421 51.4017 82.0911 51.3874 81.7617 51.373C81.4466 51.3444 81.1816 51.2871 80.9668 51.2012C80.752 51.1152 80.6445 50.9362 80.6445 50.6641C80.6445 50.4779 80.7305 50.3633 80.9023 50.3203C81.0885 50.263 81.2604 50.2344 81.418 50.2344H82.6211C82.9792 50.2344 83.3014 50.2487 83.5879 50.2773C83.8887 50.2917 84.168 50.3132 84.4258 50.3418C84.6979 50.3704 84.9701 50.3991 85.2422 50.4277C85.5286 50.4421 85.8438 50.4492 86.1875 50.4492C86.8893 50.4492 87.5052 50.4349 88.0352 50.4062C88.5651 50.3633 89.0736 50.3203 89.5605 50.2773C90.0475 50.2344 90.5345 50.1986 91.0215 50.1699C91.5085 50.127 92.0527 50.1055 92.6543 50.1055H94.0938C94.2943 50.1055 94.459 50.1484 94.5879 50.2344C94.7168 50.306 94.8171 50.349 94.8887 50.3633C94.946 50.5208 94.9818 50.6068 94.9961 50.6211C95.0104 50.6354 95.0176 50.6999 95.0176 50.8145C95.0176 50.972 94.8887 51.1009 94.6309 51.2012C94.3874 51.3014 94.1009 51.3874 93.7715 51.459C93.4564 51.5163 93.1341 51.5664 92.8047 51.6094C92.4753 51.638 92.2389 51.6738 92.0957 51.7168C91.8665 51.7598 91.623 51.8027 91.3652 51.8457C91.1074 51.8743 90.8711 51.9316 90.6562 52.0176C90.4414 52.0892 90.2624 52.2038 90.1191 52.3613C89.9759 52.5046 89.9043 52.7122 89.9043 52.9844V78.5078C89.9043 78.8086 90.0117 79.0449 90.2266 79.2168C90.4557 79.3743 90.735 79.4961 91.0645 79.582C91.3939 79.6536 91.752 79.7038 92.1387 79.7324C92.5397 79.7611 92.9049 79.7969 93.2344 79.8398C93.5638 79.8828 93.8359 79.9544 94.0508 80.0547C94.2799 80.1406 94.3945 80.2839 94.3945 80.4844C94.3945 80.6419 94.3516 80.7422 94.2656 80.7852C94.1797 80.8281 94.1009 80.8639 94.0293 80.8926C93.8288 80.9499 93.5853 81 93.2988 81.043C93.0124 81.0859 92.7617 81.1074 92.5469 81.1074C92.0312 81.1074 91.5586 81.0931 91.1289 81.0645C90.6992 81.0358 90.2839 81.0072 89.8828 80.9785C89.4818 80.9499 89.0807 80.9212 88.6797 80.8926C88.2786 80.8639 87.8418 80.8496 87.3691 80.8496C87.14 80.8496 86.8177 80.8568 86.4023 80.8711C86.0013 80.8854 85.5645 80.9069 85.0918 80.9355C84.6335 80.9499 84.1751 80.9642 83.7168 80.9785C83.2585 80.9928 82.8646 81 82.5352 81H80.8379C80.7663 81 80.666 80.9642 80.5371 80.8926C80.4082 80.821 80.3438 80.7064 80.3438 80.5488C80.3438 80.2624 80.4655 80.0905 80.709 80.0332C81.0241 79.9473 81.3034 79.8828 81.5469 79.8398C81.8047 79.7826 82.0697 79.7324 82.3418 79.6895C82.6139 79.6322 82.9147 79.5749 83.2441 79.5176C83.5736 79.4603 83.9818 79.3815 84.4688 79.2812C84.7122 79.2096 84.8555 79.0521 84.8984 78.8086C84.9557 78.5651 84.9844 78.2572 84.9844 77.8848ZM97.252 50.2344H104.471C105.044 50.2344 105.566 50.2129 106.039 50.1699C106.512 50.127 107.035 50.084 107.607 50.041C108.195 49.998 108.896 49.9551 109.713 49.9121C110.529 49.8691 111.568 49.8477 112.828 49.8477C114.275 49.8477 115.528 50.0553 116.588 50.4707C117.648 50.8717 118.521 51.416 119.209 52.1035C119.896 52.7767 120.405 53.5501 120.734 54.4238C121.064 55.2975 121.229 56.1927 121.229 57.1094C121.229 58.1549 121.1 59.0573 120.842 59.8164C120.584 60.5612 120.212 61.2201 119.725 61.793C119.238 62.3659 118.643 62.8672 117.941 63.2969C117.24 63.7266 116.452 64.1419 115.578 64.543C115.549 64.543 115.507 64.5573 115.449 64.5859C115.392 64.6003 115.363 64.6217 115.363 64.6504C115.363 64.6934 115.435 64.7435 115.578 64.8008C116.753 65.2305 117.762 65.7174 118.607 66.2617C119.467 66.7917 120.176 67.4076 120.734 68.1094C121.293 68.7969 121.708 69.5846 121.98 70.4727C122.253 71.3607 122.389 72.3704 122.389 73.502C122.389 73.946 122.317 74.4186 122.174 74.9199C122.031 75.4212 121.83 75.9225 121.572 76.4238C121.314 76.9108 121.007 77.3835 120.648 77.8418C120.305 78.2858 119.918 78.6797 119.488 79.0234C118.6 79.7396 117.411 80.2624 115.922 80.5918C114.447 80.9069 112.671 81.0645 110.594 81.0645C110.135 81.0645 109.691 81.0573 109.262 81.043C108.832 81.043 108.381 81.0358 107.908 81.0215C107.45 81.0215 106.963 81.0143 106.447 81C105.932 81 105.359 81 104.729 81C104.098 81 103.49 81.0072 102.902 81.0215C102.329 81.0358 101.757 81.0501 101.184 81.0645C100.611 81.0788 100.023 81.0931 99.4219 81.1074C98.8203 81.1217 98.1829 81.1361 97.5098 81.1504C97.5098 81.0215 97.5312 80.8711 97.5742 80.6992C97.6315 80.5273 97.7246 80.4056 97.8535 80.334C98.2975 80.1478 98.7702 80.0189 99.2715 79.9473C99.7728 79.8757 100.231 79.7754 100.646 79.6465C101.076 79.5033 101.427 79.2812 101.699 78.9805C101.986 78.6654 102.129 78.1712 102.129 77.498V53.3496C102.129 53.1777 102.122 53.0059 102.107 52.834C102.107 52.6478 102.086 52.4759 102.043 52.3184C102 52.1465 101.936 51.9961 101.85 51.8672C101.764 51.724 101.642 51.6094 101.484 51.5234C101.284 51.4232 101.062 51.3587 100.818 51.3301C100.589 51.2871 100.317 51.2513 100.002 51.2227C99.6868 51.194 99.3288 51.151 98.9277 51.0938C98.5267 51.0221 98.054 50.9076 97.5098 50.75C97.3379 50.707 97.252 50.6211 97.252 50.4922V50.2344ZM106.619 66.2832V78.0566C107.178 78.7012 107.779 79.2168 108.424 79.6035C109.068 79.9902 109.82 80.1836 110.68 80.1836C111.697 80.1836 112.585 79.9544 113.344 79.4961C114.117 79.0378 114.755 78.4505 115.256 77.7344C115.771 77.0182 116.158 76.2161 116.416 75.3281C116.674 74.4258 116.803 73.5378 116.803 72.6641C116.803 71.6615 116.609 70.7233 116.223 69.8496C115.836 68.9616 115.313 68.1953 114.654 67.5508C113.995 66.9062 113.229 66.3978 112.355 66.0254C111.496 65.653 110.587 65.4668 109.627 65.4668H109.025C108.896 65.4668 108.689 65.4668 108.402 65.4668C108.13 65.4668 107.772 65.4811 107.328 65.5098C106.855 65.5098 106.619 65.7676 106.619 66.2832ZM106.619 50.9648V64.0059C106.619 64.1634 106.655 64.2995 106.727 64.4141C106.812 64.5143 106.913 64.5931 107.027 64.6504C107.142 64.7077 107.257 64.7507 107.371 64.7793C107.486 64.7936 107.579 64.8008 107.65 64.8008C108.768 64.8008 109.727 64.6862 110.529 64.457C111.346 64.2279 112.026 63.9414 112.57 63.5977C112.971 63.3542 113.358 63.0391 113.73 62.6523C114.117 62.2656 114.454 61.8216 114.74 61.3203C115.041 60.819 115.277 60.2747 115.449 59.6875C115.635 59.0859 115.729 58.4486 115.729 57.7754C115.729 55.9134 115.413 54.4596 114.783 53.4141C114.167 52.3542 113.179 51.6165 111.818 51.2012C111.274 51.0293 110.694 50.9147 110.078 50.8574C109.462 50.7858 108.782 50.75 108.037 50.75C107.779 50.75 107.529 50.7715 107.285 50.8145C107.042 50.8431 106.82 50.8932 106.619 50.9648ZM130.316 79.0664V52.9844C130.316 52.7839 130.252 52.6191 130.123 52.4902C129.994 52.3613 129.829 52.2611 129.629 52.1895C129.443 52.1035 129.242 52.0462 129.027 52.0176C128.812 51.9889 128.619 51.9746 128.447 51.9746H127.566C127.366 51.9746 127.201 51.9746 127.072 51.9746C126.943 51.9746 126.822 51.9603 126.707 51.9316C126.535 51.9316 126.449 51.8815 126.449 51.7812C126.449 51.6237 126.535 51.5234 126.707 51.4805C127.18 51.3945 127.609 51.3301 127.996 51.2871C128.397 51.2441 128.791 51.2155 129.178 51.2012C129.564 51.1725 129.951 51.1582 130.338 51.1582C130.739 51.1439 131.176 51.1152 131.648 51.0723C131.72 51.0723 131.878 51.0651 132.121 51.0508C132.379 51.0221 132.68 50.9935 133.023 50.9648C133.382 50.9362 133.754 50.9076 134.141 50.8789C134.542 50.8359 134.914 50.8001 135.258 50.7715C135.616 50.7285 135.924 50.6927 136.182 50.6641C136.439 50.6354 136.611 50.6139 136.697 50.5996C137.113 50.5423 137.564 50.4993 138.051 50.4707C138.552 50.4277 139.046 50.4062 139.533 50.4062C141.023 50.4062 142.369 50.5924 143.572 50.9648C144.79 51.3372 145.828 51.8672 146.688 52.5547C147.547 53.2422 148.206 54.0658 148.664 55.0254C149.137 55.985 149.373 57.0521 149.373 58.2266C149.373 59.1576 149.273 60.0384 149.072 60.8691C148.872 61.6855 148.478 62.4876 147.891 63.2754C147.604 63.6478 147.296 63.9701 146.967 64.2422C146.652 64.5 146.322 64.7363 145.979 64.9512C145.649 65.166 145.305 65.3665 144.947 65.5527C144.589 65.7389 144.231 65.9466 143.873 66.1758C143.773 66.2331 143.723 66.3333 143.723 66.4766C143.723 66.5052 143.758 66.5911 143.83 66.7344C144.804 67.9232 145.749 69.1335 146.666 70.3652C147.583 71.597 148.471 72.8646 149.33 74.168C149.731 74.7266 150.175 75.2923 150.662 75.8652C151.163 76.4382 151.665 76.9753 152.166 77.4766C152.438 77.7487 152.717 78.0065 153.004 78.25C153.29 78.4935 153.62 78.7298 153.992 78.959C154.379 79.1738 154.83 79.3815 155.346 79.582C155.861 79.7682 156.477 79.9329 157.193 80.0762C157.38 80.1335 157.537 80.1979 157.666 80.2695C157.809 80.3268 157.881 80.4199 157.881 80.5488C157.881 80.8066 157.795 80.9427 157.623 80.957C157.594 80.9857 157.53 81 157.43 81C157.344 81 157.236 81 157.107 81H156.549C156.262 81 155.919 81 155.518 81C155.131 80.9857 154.715 80.9785 154.271 80.9785C153.842 80.9642 153.398 80.9499 152.939 80.9355C152.481 80.9212 152.059 80.9069 151.672 80.8926C151.099 80.8639 150.562 80.8138 150.061 80.7422C149.559 80.6706 149.058 80.4701 148.557 80.1406C148.227 79.9831 147.883 79.7109 147.525 79.3242C147.167 78.9232 146.831 78.4935 146.516 78.0352C146.129 77.5195 145.714 76.9466 145.27 76.3164C144.84 75.6862 144.403 75.0488 143.959 74.4043C143.515 73.7598 143.078 73.1296 142.648 72.5137C142.233 71.8978 141.846 71.3392 141.488 70.8379C141.145 70.3223 140.851 69.8926 140.607 69.5488C140.378 69.1908 140.228 68.9544 140.156 68.8398C140.099 68.7539 139.992 68.6035 139.834 68.3887C139.691 68.1738 139.533 67.959 139.361 67.7441C139.189 67.515 139.018 67.3145 138.846 67.1426C138.674 66.9564 138.545 66.8561 138.459 66.8418C138.115 66.7988 137.714 66.7702 137.256 66.7559C136.812 66.7415 136.404 66.7344 136.031 66.7344H135.473C135.315 66.7344 135.158 66.7773 135 66.8633C134.857 66.9349 134.757 67.0638 134.699 67.25V77.3906C134.699 77.5625 134.706 77.763 134.721 77.9922C134.749 78.2214 134.785 78.4434 134.828 78.6582C134.871 78.873 134.928 79.0736 135 79.2598C135.072 79.4316 135.158 79.5534 135.258 79.625C135.444 79.7539 135.759 79.8685 136.203 79.9688C136.647 80.0547 137.113 80.1263 137.6 80.1836C138.101 80.2266 138.574 80.2624 139.018 80.291C139.476 80.3197 139.798 80.334 139.984 80.334C140.113 80.334 140.199 80.3913 140.242 80.5059C140.285 80.6204 140.307 80.735 140.307 80.8496C140.307 81.0072 140.271 81.1003 140.199 81.1289C140.142 81.1719 140.02 81.1934 139.834 81.1934C139.605 81.1934 139.24 81.179 138.738 81.1504C138.237 81.1361 137.707 81.1146 137.148 81.0859C136.604 81.0716 136.096 81.0501 135.623 81.0215C135.165 81.0072 134.857 81 134.699 81H128.039C127.982 81 127.889 81 127.76 81C127.631 80.9857 127.488 80.9785 127.33 80.9785C127.173 80.9642 127.015 80.957 126.857 80.957C126.7 80.9427 126.564 80.9355 126.449 80.9355C126.292 80.9069 126.163 80.8926 126.062 80.8926C125.977 80.8783 125.934 80.7923 125.934 80.6348C125.934 80.5345 125.962 80.4629 126.02 80.4199C126.077 80.3626 126.22 80.2982 126.449 80.2266C126.721 80.1693 127.065 80.1406 127.48 80.1406C127.91 80.1263 128.326 80.0905 128.727 80.0332C129.128 79.9759 129.479 79.8828 129.779 79.7539C130.094 79.6107 130.273 79.3815 130.316 79.0664ZM134.699 51.8672V65.6602C134.699 65.8034 134.742 65.9251 134.828 66.0254C134.914 66.1257 135.007 66.1758 135.107 66.1758H135.967C136.454 66.1758 136.969 66.1543 137.514 66.1113C138.058 66.0684 138.495 66.0111 138.824 65.9395C139.211 65.8392 139.598 65.6816 139.984 65.4668C140.371 65.2376 140.736 64.987 141.08 64.7148C141.424 64.4284 141.746 64.1276 142.047 63.8125C142.348 63.4831 142.613 63.168 142.842 62.8672C143.085 62.5234 143.3 62.2083 143.486 61.9219C143.673 61.6354 143.83 61.3346 143.959 61.0195C144.102 60.7044 144.21 60.3535 144.281 59.9668C144.367 59.5658 144.432 59.0931 144.475 58.5488C144.475 57.7897 144.417 57.1165 144.303 56.5293C144.188 55.9277 144.002 55.3835 143.744 54.8965C143.501 54.4095 143.193 53.9583 142.82 53.543C142.448 53.1276 142.004 52.7266 141.488 52.3398C141.316 52.2253 141.116 52.1107 140.887 51.9961C140.672 51.8815 140.443 51.7812 140.199 51.6953C139.956 51.5951 139.705 51.5091 139.447 51.4375C139.189 51.3659 138.946 51.3086 138.717 51.2656C138.588 51.237 138.373 51.2227 138.072 51.2227C137.771 51.2083 137.528 51.2012 137.342 51.2012C137.141 51.2012 136.891 51.2083 136.59 51.2227C136.289 51.2227 135.995 51.2441 135.709 51.2871C135.437 51.3301 135.201 51.4017 135 51.502C134.799 51.5879 134.699 51.7096 134.699 51.8672ZM162.457 77.8848V53.6719C162.457 53.0703 162.35 52.6191 162.135 52.3184C161.92 52.0033 161.648 51.7812 161.318 51.6523C161.003 51.5091 160.66 51.4303 160.287 51.416C159.915 51.4017 159.564 51.3874 159.234 51.373C158.919 51.3444 158.654 51.2871 158.439 51.2012C158.225 51.1152 158.117 50.9362 158.117 50.6641C158.117 50.4779 158.203 50.3633 158.375 50.3203C158.561 50.263 158.733 50.2344 158.891 50.2344H160.094C160.452 50.2344 160.774 50.2487 161.061 50.2773C161.361 50.2917 161.641 50.3132 161.898 50.3418C162.171 50.3704 162.443 50.3991 162.715 50.4277C163.001 50.4421 163.316 50.4492 163.66 50.4492C164.362 50.4492 164.978 50.4349 165.508 50.4062C166.038 50.3633 166.546 50.3203 167.033 50.2773C167.52 50.2344 168.007 50.1986 168.494 50.1699C168.981 50.127 169.525 50.1055 170.127 50.1055H171.566C171.767 50.1055 171.932 50.1484 172.061 50.2344C172.189 50.306 172.29 50.349 172.361 50.3633C172.419 50.5208 172.454 50.6068 172.469 50.6211C172.483 50.6354 172.49 50.6999 172.49 50.8145C172.49 50.972 172.361 51.1009 172.104 51.2012C171.86 51.3014 171.574 51.3874 171.244 51.459C170.929 51.5163 170.607 51.5664 170.277 51.6094C169.948 51.638 169.712 51.6738 169.568 51.7168C169.339 51.7598 169.096 51.8027 168.838 51.8457C168.58 51.8743 168.344 51.9316 168.129 52.0176C167.914 52.0892 167.735 52.2038 167.592 52.3613C167.449 52.5046 167.377 52.7122 167.377 52.9844V78.5078C167.377 78.8086 167.484 79.0449 167.699 79.2168C167.928 79.3743 168.208 79.4961 168.537 79.582C168.867 79.6536 169.225 79.7038 169.611 79.7324C170.012 79.7611 170.378 79.7969 170.707 79.8398C171.036 79.8828 171.309 79.9544 171.523 80.0547C171.753 80.1406 171.867 80.2839 171.867 80.4844C171.867 80.6419 171.824 80.7422 171.738 80.7852C171.652 80.8281 171.574 80.8639 171.502 80.8926C171.301 80.9499 171.058 81 170.771 81.043C170.485 81.0859 170.234 81.1074 170.02 81.1074C169.504 81.1074 169.031 81.0931 168.602 81.0645C168.172 81.0358 167.757 81.0072 167.355 80.9785C166.954 80.9499 166.553 80.9212 166.152 80.8926C165.751 80.8639 165.314 80.8496 164.842 80.8496C164.613 80.8496 164.29 80.8568 163.875 80.8711C163.474 80.8854 163.037 80.9069 162.564 80.9355C162.106 80.9499 161.648 80.9642 161.189 80.9785C160.731 80.9928 160.337 81 160.008 81H158.311C158.239 81 158.139 80.9642 158.01 80.8926C157.881 80.821 157.816 80.7064 157.816 80.5488C157.816 80.2624 157.938 80.0905 158.182 80.0332C158.497 79.9473 158.776 79.8828 159.02 79.8398C159.277 79.7826 159.542 79.7324 159.814 79.6895C160.087 79.6322 160.387 79.5749 160.717 79.5176C161.046 79.4603 161.454 79.3815 161.941 79.2812C162.185 79.2096 162.328 79.0521 162.371 78.8086C162.428 78.5651 162.457 78.2572 162.457 77.8848Z" fill="white"/>
</svg>
