<svg width="398" height="231" viewBox="0 0 398 231" fill="none" xmlns="http://www.w3.org/2000/svg">
<path d="M175.651 230.869C241.752 230.869 295.337 227.799 295.337 224.012C295.337 220.225 241.752 217.155 175.651 217.155C109.551 217.155 55.9653 220.225 55.9653 224.012C55.9653 227.799 109.551 230.869 175.651 230.869Z" fill="#F5F5F5"/>
<path d="M229.182 208.638C229.182 208.638 238.745 200.296 235.908 198.941C233.071 197.585 229.533 205.197 229.182 204.06C228.832 202.924 231.063 192.372 225.729 193.102C220.395 193.832 225.729 204.06 225.729 204.06C225.729 204.06 221.776 199.89 220.416 200.526C219.056 201.162 224.666 208.638 224.666 208.638H229.182Z" fill="#B99980"/>
<path d="M92.878 210.379C92.878 210.379 90.7529 203.289 95.0881 201.871C99.4233 200.453 102.037 197.147 101.899 193.394C101.761 189.64 106.341 185.991 109.794 189.504C113.247 193.018 112.78 186.804 117.37 185.334C121.96 183.864 125.87 187.482 124.606 190.839C123.341 194.196 127.878 196.282 133.308 193.435C138.738 190.589 144.709 195.771 143.562 199.827C142.414 203.883 143.349 204.331 146.749 202.955C150.15 201.579 156.312 205.436 154.187 210.4C152.062 215.363 92.878 210.379 92.878 210.379Z" fill="#B99980"/>
<path d="M288.483 212.589C285.731 210.764 288.207 207.657 290.948 207.292C293.69 206.927 296.452 203.716 296.58 201.672C296.707 199.629 301.659 193.331 309.331 197.22C317.002 201.109 314.643 197.794 320.243 196.699C325.843 195.604 329.306 198.784 326.863 201.099C326.863 201.099 332.452 200.171 334.757 203.643C337.063 207.115 334.757 209.273 334.757 209.273C334.757 209.273 345.255 209.065 344.32 213.382C343.385 217.698 288.483 212.589 288.483 212.589Z" fill="#B99980"/>
<path d="M43.8843 207.188C43.8843 207.188 52.3316 191.016 50.2065 189.463C48.0814 187.909 43.8949 203.017 43.8843 201.797C43.8737 200.578 44.1181 180.058 40.2185 180.871C36.3189 181.684 40.2185 200.63 40.2185 200.63C40.2185 200.63 34.9695 190.943 32.9081 191.684C30.8468 192.424 38.9753 203.925 38.9753 203.925C38.9753 203.925 34.1301 201.036 32.9081 201.266C31.6862 201.495 38.9753 207.219 38.9753 207.219L43.8843 207.188Z" fill="#B99980"/>
<path d="M371.384 209.159C371.384 209.159 362.936 192.987 365.061 191.433C367.187 189.88 371.384 204.988 371.384 203.768C371.384 202.548 371.15 182.029 375.049 182.842C378.949 183.655 375.049 202.6 375.049 202.6C375.049 202.6 380.309 192.924 382.36 193.654C384.41 194.384 376.271 205.864 376.271 205.864C376.271 205.864 381.127 202.976 382.338 203.205C383.55 203.435 376.271 209.159 376.271 209.159H371.384Z" fill="#B99980"/>
<path d="M398 225.758L0.000476434 225.758V207.908C0.000476434 207.385 0.212078 206.884 0.588693 206.514C0.965308 206.145 1.4761 205.937 2.00871 205.937L395.992 205.937C396.525 205.937 397.036 206.145 397.412 206.514C397.789 206.884 398 207.385 398 207.908V225.758Z" fill="#263238"/>
<path opacity="0.7" d="M398 225.758L0.000476434 225.758V207.908C0.000476434 207.385 0.212078 206.884 0.588693 206.514C0.965308 206.145 1.4761 205.937 2.00871 205.937L395.992 205.937C396.525 205.937 397.036 206.145 397.412 206.514C397.789 206.884 398 207.385 398 207.908V225.758Z" fill="white"/>
<path opacity="0.2" d="M1.95563 223.297H28.02V209.868H1.95563V223.297Z" fill="white"/>
<path opacity="0.2" d="M29.4224 222.015H55.4868V208.585H29.4224V222.015Z" fill="white"/>
<path opacity="0.2" d="M56.5921 222.025H73.561V213.486H56.5921V222.025Z" fill="white"/>
<path opacity="0.2" d="M374.624 223.12H391.593V214.581H374.624V223.12Z" fill="white"/>
<path opacity="0.2" d="M74.921 220.899H92.7612V209.211H74.921V220.899Z" fill="white"/>
<path opacity="0.2" d="M94.0788 219.325H106.213V207.636H94.0788V219.325Z" fill="white"/>
<path opacity="0.2" d="M360.524 221.556H372.659V209.868H360.524V221.556Z" fill="white"/>
<path opacity="0.2" d="M145.209 221.556H157.343V209.868H145.209V221.556Z" fill="white"/>
<path opacity="0.2" d="M132.469 215.707H144.603V207.626H132.469V215.707Z" fill="white"/>
<path opacity="0.2" d="M107.446 222.432H127.432V210.743H107.446V222.432Z" fill="white"/>
<path opacity="0.2" d="M158.725 220.899H178.711V209.211H158.725V220.899Z" fill="white"/>
<path opacity="0.2" d="M57.7719 212.349H70.6394V208.585H57.7719V212.349Z" fill="white"/>
<path opacity="0.2" d="M378.726 212.61H391.593V208.846H378.726V212.61Z" fill="white"/>
<path opacity="0.2" d="M129.78 221.202H142.648V217.438H129.78V221.202Z" fill="white"/>
<path opacity="0.2" d="M180.464 223.297H206.528V209.868H180.464V223.297Z" fill="white"/>
<path opacity="0.2" d="M207.931 222.015H233.996V208.585H207.931V222.015Z" fill="white"/>
<path opacity="0.2" d="M235.1 222.025H252.069V213.486H235.1V222.025Z" fill="white"/>
<path opacity="0.2" d="M253.429 220.899H271.27V209.211H253.429V220.899Z" fill="white"/>
<path opacity="0.2" d="M272.587 219.325H284.722V207.636H272.587V219.325Z" fill="white"/>
<path opacity="0.2" d="M323.717 221.556H335.852V209.868H323.717V221.556Z" fill="white"/>
<path opacity="0.2" d="M310.977 215.707H323.112V207.626H310.977V215.707Z" fill="white"/>
<path opacity="0.2" d="M285.954 222.432H305.941V210.743H285.954V222.432Z" fill="white"/>
<path opacity="0.2" d="M337.234 220.899H357.22V209.211H337.234V220.899Z" fill="white"/>
<path opacity="0.2" d="M236.28 212.349H249.147V208.585H236.28V212.349Z" fill="white"/>
<path opacity="0.2" d="M308.289 221.202H321.156V217.438H308.289V221.202Z" fill="white"/>
<path d="M356.149 36.2906C355.062 35.7324 354.024 35.0832 353.049 34.3504C351.212 33.0538 348.947 31.0739 346.545 29.0927C344.562 27.4167 342.311 26.0768 339.884 25.1284C338.015 24.4313 336.654 24.3032 336.601 23.7664C336.549 23.2297 337.915 22.5992 340.302 22.753C343.412 23.1212 346.342 24.4177 348.696 26.4677C350.892 28.4124 352.769 30.6807 354.257 33.1901C355.463 35.0686 356.149 36.2906 356.149 36.2906Z" fill="#B99980"/>
<path d="M370.4 29.9523L367.722 30.2644C366.118 30.4795 364.131 30.8498 361.808 31.1852C357.268 31.9164 353.31 32.8638 353.015 31.9275C352.85 31.4969 353.614 30.7296 355.076 29.9213C357.013 28.8682 359.128 28.1621 361.322 27.8359C363.575 27.4945 365.885 27.7581 368.009 28.5988C368.652 28.8581 369.267 29.1793 369.847 29.5578L370.4 29.9523Z" fill="#B99980"/>
<path d="M332.364 37.6606L331.803 37.0951C331.452 36.7184 330.911 36.2088 330.253 35.6186C328.597 34.1143 326.816 32.7498 324.929 31.5399C320.609 28.6467 316.264 27.9419 316.317 27.1956C316.398 26.8786 317.504 26.5873 319.411 26.8041C321.888 27.1525 324.259 28.041 326.352 29.4045C328.44 30.7809 330.141 32.6568 331.292 34.8539C331.642 35.5066 331.928 36.1904 332.146 36.8958L332.364 37.6606Z" fill="#B99980"/>
<path d="M339.494 29.2163L337.535 29.7458L333.209 30.8525C329.945 31.7071 327.283 32.9012 326.855 32.2854C326.673 31.9858 327.106 31.3027 328.08 30.5215C329.399 29.4755 330.93 28.7159 332.573 28.2923C334.216 27.9024 335.938 27.9353 337.573 28.3876C338.244 28.5865 338.89 28.8647 339.494 29.2163Z" fill="#B99980"/>
<path d="M332.286 21.5327C332.286 21.5327 330.812 20.5653 328.62 18.9078C326.428 17.2504 323.481 14.978 320.147 12.8766C317.346 11.0795 314.231 9.81408 310.965 9.14649C308.441 8.65369 306.737 8.72482 306.624 8.22324C306.511 7.72167 308.111 6.91468 311.112 6.75265C314.955 6.7928 318.712 7.94039 321.918 10.0534C325.019 12.1105 327.691 14.737 329.784 17.7869C330.686 18.9904 331.521 20.2409 332.286 21.5327Z" fill="#B99980"/>
<path d="M346.683 10.7069L345.714 10.7294C345.08 10.7194 344.191 10.7626 343.129 10.812C340.452 10.9736 337.787 11.2851 335.148 11.7448C329.004 12.7587 324.532 15.4489 323.918 14.6844C323.632 14.3241 324.42 13.1241 326.263 11.7712C328.713 10.0488 331.531 8.89334 334.508 8.39012C337.483 7.89632 340.543 8.14401 343.409 9.1106C344.266 9.39636 345.095 9.76069 345.884 10.1988L346.683 10.7069Z" fill="#B99980"/>
<path d="M85.6736 171.849H63.2229V187.247H85.6736V171.849Z" fill="#263238"/>
<path d="M56.0071 168.36V217.049H86.9887V168.36H56.0071ZM83.6122 182.746H73.7356V176.919C73.7356 176.267 73.9996 175.641 74.4696 175.18C74.9396 174.719 75.5771 174.46 76.2418 174.46H81.0875C81.7457 174.469 82.3737 174.733 82.8357 175.193C83.2977 175.653 83.5567 176.273 83.5566 176.919L83.6122 182.746Z" fill="#B99980"/>
<path opacity="0.6" d="M56.0071 168.36V217.049H86.9887V168.36H56.0071ZM83.6122 182.746H73.7356V176.919C73.7356 176.267 73.9996 175.641 74.4696 175.18C74.9396 174.719 75.5771 174.46 76.2418 174.46H81.0875C81.7457 174.469 82.3737 174.733 82.8357 175.193C83.2977 175.653 83.5567 176.273 83.5566 176.919L83.6122 182.746Z" fill="white"/>
<path opacity="0.4" d="M69.2911 168.36H56.0071V217.049H69.2911V168.36Z" fill="white"/>
<path d="M87.7171 165.792H55.2046V170.498H87.7171V165.792Z" fill="#B99980"/>
<path opacity="0.2" d="M70.2108 165.792H55.2046V170.498H70.2108V165.792Z" fill="white"/>
<path d="M100.571 162.656L89.8669 219.11H96.6725L107.376 162.656H100.571Z" fill="#263238"/>
<path d="M250.109 162.656L239.405 219.11H246.21L256.914 162.656H250.109Z" fill="#263238"/>
<path opacity="0.3" d="M100.571 162.656L89.8669 219.11H96.6725L107.376 162.656H100.571Z" fill="white"/>
<path opacity="0.3" d="M250.109 162.656L239.405 219.11H246.21L256.914 162.656H250.109Z" fill="white"/>
<path d="M308.211 189.137H95.8767V196.026H308.211V189.137Z" fill="#263238"/>
<path opacity="0.5" d="M308.211 189.137H95.8767V196.026H308.211V189.137Z" fill="white"/>
<path d="M148.701 162.656L159.405 219.11H166.21L155.507 162.656H148.701Z" fill="#263238"/>
<path d="M298.229 162.656L308.933 219.11H315.739L305.035 162.656H298.229Z" fill="#263238"/>
<path opacity="0.3" d="M148.701 162.656L159.405 219.11H166.21L155.507 162.656H148.701Z" fill="white"/>
<path opacity="0.3" d="M298.229 162.656L308.933 219.11H315.739L305.035 162.656H298.229Z" fill="white"/>
<path d="M247.248 162.304H240.479L229.146 99.3126H235.915L247.248 162.304Z" fill="#263238"/>
<path opacity="0.3" d="M247.248 162.304H240.479L229.146 99.3126H235.915L247.248 162.304Z" fill="white"/>
<path d="M112.83 162.304H106.061L94.728 99.3126H101.497L112.83 162.304Z" fill="#263238"/>
<path d="M180.034 162.304H173.266L161.932 99.3126H168.71L180.034 162.304Z" fill="#263238"/>
<path opacity="0.3" d="M112.83 162.304H106.061L94.728 99.3126H101.497L112.83 162.304Z" fill="white"/>
<path opacity="0.3" d="M180.034 162.304H173.266L161.932 99.3126H168.71L180.034 162.304Z" fill="white"/>
<path d="M258.942 103.609H81.1634L79.043 91.822H256.822L258.942 103.609Z" fill="#263238"/>
<path d="M262.776 124.942H84.9971L82.8767 113.146H260.655L262.776 124.942Z" fill="#263238"/>
<path d="M266.609 146.267H88.8396L86.7192 134.48H264.489L266.609 146.267Z" fill="#263238"/>
<path d="M317.164 160.452H90.5984V168.609H317.164V160.452Z" fill="#263238"/>
<path opacity="0.5" d="M258.942 103.609H81.1634L79.043 91.822H256.822L258.942 103.609Z" fill="white"/>
<path opacity="0.5" d="M262.776 124.942H84.9971L82.8767 113.146H260.655L262.776 124.942Z" fill="white"/>
<path opacity="0.5" d="M266.609 146.267H88.8396L86.7192 134.48H264.489L266.609 146.267Z" fill="white"/>
<path opacity="0.5" d="M317.164 160.452H90.5984V168.609H317.164V160.452Z" fill="white"/>
<path opacity="0.2" d="M317.165 160.452H146.229V168.609H317.165V160.452Z" fill="white"/>
<path d="M254.711 160.341L257.091 126.702H279.48L283.998 160.054L254.711 160.341Z" fill="#263238"/>
<path opacity="0.3" d="M262.952 126.702V158.943L259.1 154.359L254.711 160.341L257.091 126.702H262.952Z" fill="black"/>
<path d="M273.702 135.869H273.424C268.341 135.581 267.331 128.517 267.294 128.211L268.22 128.091C268.22 128.156 269.146 134.702 273.489 134.952C273.852 135.001 274.222 134.961 274.566 134.833C274.91 134.706 275.218 134.495 275.461 134.22C276.896 132.48 275.859 128.313 275.85 128.267L276.776 128.035C276.822 128.23 277.942 132.665 276.202 134.804C275.897 135.164 275.512 135.447 275.078 135.632C274.644 135.817 274.173 135.898 273.702 135.869Z" fill="white"/>
<path d="M268.396 128.146C268.396 128.227 268.38 128.308 268.349 128.382C268.317 128.457 268.272 128.525 268.214 128.582C268.156 128.639 268.088 128.683 268.012 128.714C267.937 128.744 267.857 128.759 267.776 128.757C267.695 128.759 267.615 128.744 267.54 128.713C267.466 128.683 267.398 128.638 267.341 128.581C267.284 128.524 267.239 128.456 267.209 128.382C267.178 128.307 267.163 128.227 267.165 128.146C267.163 128.065 267.178 127.985 267.208 127.91C267.239 127.834 267.283 127.766 267.34 127.708C267.397 127.65 267.465 127.605 267.54 127.573C267.614 127.542 267.695 127.526 267.776 127.526C267.857 127.526 267.938 127.542 268.013 127.573C268.088 127.604 268.157 127.65 268.214 127.708C268.272 127.765 268.318 127.834 268.349 127.909C268.38 127.984 268.396 128.065 268.396 128.146Z" fill="white"/>
<path d="M276.322 128.767C276.665 128.767 276.942 128.489 276.942 128.146C276.942 127.804 276.665 127.526 276.322 127.526C275.979 127.526 275.702 127.804 275.702 128.146C275.702 128.489 275.979 128.767 276.322 128.767Z" fill="white"/>
<path d="M276.59 149.933H294.72V145.655H276.59V149.933Z" fill="#B99980"/>
<path opacity="0.7" d="M276.59 149.933H294.72V145.655H276.59V149.933Z" fill="white"/>
<path d="M287.701 145.267H301.905C302.55 145.306 303.156 145.589 303.599 146.06C304.042 146.531 304.289 147.153 304.289 147.799C304.289 148.445 304.042 149.067 303.599 149.538C303.156 150.009 302.55 150.292 301.905 150.331H287.701V149.406H289.859C290.08 149.422 290.302 149.393 290.512 149.32C290.721 149.247 290.913 149.131 291.076 148.981C291.239 148.83 291.369 148.647 291.457 148.444C291.546 148.24 291.592 148.021 291.592 147.799C291.592 147.577 291.546 147.358 291.457 147.154C291.369 146.951 291.239 146.768 291.076 146.617C290.913 146.467 290.721 146.351 290.512 146.278C290.302 146.205 290.08 146.176 289.859 146.193H287.701V145.267Z" fill="#B99980"/>
<g opacity="0.4">
<path d="M287.701 145.267H301.905C302.55 145.306 303.156 145.589 303.599 146.06C304.042 146.531 304.289 147.153 304.289 147.799C304.289 148.445 304.042 149.067 303.599 149.538C303.156 150.009 302.55 150.292 301.905 150.331H287.701V149.406H289.859C290.08 149.422 290.302 149.393 290.512 149.32C290.721 149.247 290.913 149.131 291.076 148.981C291.239 148.83 291.369 148.647 291.457 148.444C291.546 148.24 291.592 148.021 291.592 147.799C291.592 147.577 291.546 147.358 291.457 147.154C291.369 146.951 291.239 146.768 291.076 146.617C290.913 146.467 290.721 146.351 290.512 146.278C290.302 146.205 290.08 146.176 289.859 146.193H287.701V145.267Z" fill="white"/>
</g>
<path d="M275.664 145.267H289.859C290.204 145.246 290.55 145.296 290.876 145.414C291.201 145.531 291.499 145.715 291.751 145.952C292.003 146.189 292.204 146.475 292.341 146.793C292.478 147.111 292.549 147.453 292.549 147.799C292.549 148.145 292.478 148.488 292.341 148.805C292.204 149.123 292.003 149.409 291.751 149.646C291.499 149.884 291.201 150.067 290.876 150.185C290.55 150.302 290.204 150.352 289.859 150.332H275.664V149.406H289.859C290.08 149.422 290.302 149.393 290.512 149.32C290.721 149.247 290.913 149.132 291.076 148.981C291.239 148.83 291.369 148.647 291.457 148.444C291.546 148.24 291.592 148.021 291.592 147.799C291.592 147.577 291.546 147.358 291.457 147.154C291.369 146.951 291.239 146.768 291.076 146.618C290.913 146.467 290.721 146.351 290.512 146.278C290.302 146.205 290.08 146.176 289.859 146.193H275.664V145.267Z" fill="#B99980"/>
<g opacity="0.2">
<path d="M275.664 145.267H289.859C290.204 145.246 290.55 145.296 290.876 145.414C291.201 145.531 291.499 145.715 291.751 145.952C292.003 146.189 292.204 146.475 292.341 146.793C292.478 147.111 292.549 147.453 292.549 147.799C292.549 148.145 292.478 148.488 292.341 148.805C292.204 149.123 292.003 149.409 291.751 149.646C291.499 149.884 291.201 150.067 290.876 150.185C290.55 150.302 290.204 150.352 289.859 150.332H275.664V149.406H289.859C290.08 149.422 290.302 149.393 290.512 149.32C290.721 149.247 290.913 149.132 291.076 148.981C291.239 148.83 291.369 148.647 291.457 148.444C291.546 148.24 291.592 148.021 291.592 147.799C291.592 147.577 291.546 147.358 291.457 147.154C291.369 146.951 291.239 146.768 291.076 146.618C290.913 146.467 290.721 146.351 290.512 146.278C290.302 146.205 290.08 146.176 289.859 146.193H275.664V145.267Z" fill="white"/>
</g>
<path d="M272.868 154.998H290.998V150.72H272.868V154.998Z" fill="#B99980"/>
<path opacity="0.7" d="M272.868 154.998H290.998V150.72H272.868V154.998Z" fill="white"/>
<path d="M283.979 150.331H298.183C298.854 150.331 299.497 150.598 299.971 151.072C300.445 151.546 300.711 152.189 300.711 152.859C300.711 153.53 300.445 154.173 299.971 154.647C299.497 155.121 298.854 155.387 298.183 155.387H283.979V154.461H286.137C286.347 154.461 286.556 154.42 286.75 154.339C286.944 154.259 287.121 154.141 287.27 153.992C287.418 153.843 287.536 153.667 287.617 153.472C287.697 153.278 287.739 153.07 287.739 152.859C287.739 152.649 287.697 152.441 287.617 152.246C287.536 152.052 287.418 151.875 287.27 151.727C287.121 151.578 286.944 151.46 286.75 151.379C286.556 151.299 286.347 151.257 286.137 151.257H283.979V150.331Z" fill="#263238"/>
<g opacity="0.2">
<path d="M283.979 150.331H298.183C298.854 150.331 299.497 150.598 299.971 151.072C300.445 151.546 300.711 152.189 300.711 152.859C300.711 153.53 300.445 154.173 299.971 154.647C299.497 155.121 298.854 155.387 298.183 155.387H283.979V154.461H286.137C286.347 154.461 286.556 154.42 286.75 154.339C286.944 154.259 287.121 154.141 287.27 153.992C287.418 153.843 287.536 153.667 287.617 153.472C287.697 153.278 287.739 153.07 287.739 152.859C287.739 152.649 287.697 152.441 287.617 152.246C287.536 152.052 287.418 151.875 287.27 151.727C287.121 151.578 286.944 151.46 286.75 151.379C286.556 151.299 286.347 151.257 286.137 151.257H283.979V150.331Z" fill="white"/>
</g>
<path d="M271.933 150.331H286.137C286.807 150.331 287.45 150.598 287.924 151.072C288.398 151.546 288.665 152.189 288.665 152.859C288.665 153.53 288.398 154.173 287.924 154.647C287.45 155.121 286.807 155.387 286.137 155.387H271.933V154.461H286.137C286.347 154.461 286.556 154.42 286.75 154.339C286.944 154.259 287.121 154.141 287.27 153.992C287.418 153.843 287.536 153.667 287.617 153.472C287.697 153.278 287.739 153.07 287.739 152.859C287.739 152.649 287.697 152.441 287.617 152.246C287.536 152.052 287.418 151.875 287.27 151.727C287.121 151.578 286.944 151.46 286.75 151.379C286.556 151.299 286.347 151.257 286.137 151.257H271.933V150.331Z" fill="#263238"/>
<g opacity="0.4">
<path d="M271.933 150.331H286.137C286.807 150.331 287.45 150.598 287.924 151.072C288.398 151.546 288.665 152.189 288.665 152.859C288.665 153.53 288.398 154.173 287.924 154.647C287.45 155.121 286.807 155.387 286.137 155.387H271.933V154.461H286.137C286.347 154.461 286.556 154.42 286.75 154.339C286.944 154.259 287.121 154.141 287.27 153.992C287.418 153.843 287.536 153.667 287.617 153.472C287.697 153.278 287.739 153.07 287.739 152.859C287.739 152.649 287.697 152.441 287.617 152.246C287.536 152.052 287.418 151.875 287.27 151.727C287.121 151.578 286.944 151.46 286.75 151.379C286.556 151.299 286.347 151.257 286.137 151.257H271.933V150.331Z" fill="white"/>
</g>
<path d="M302.128 155.785H283.998V160.063H302.128V155.785Z" fill="#B99980"/>
<path opacity="0.7" d="M302.128 155.785H283.998V160.063H302.128V155.785Z" fill="white"/>
<path d="M303.053 155.387H288.859C288.514 155.366 288.167 155.416 287.842 155.534C287.517 155.652 287.219 155.835 286.967 156.072C286.715 156.309 286.514 156.596 286.377 156.913C286.24 157.231 286.169 157.573 286.169 157.919C286.169 158.266 286.24 158.608 286.377 158.926C286.514 159.243 286.715 159.53 286.967 159.767C287.219 160.004 287.517 160.187 287.842 160.305C288.167 160.423 288.514 160.473 288.859 160.452H303.053V159.526H288.859C288.638 159.543 288.415 159.514 288.206 159.441C287.996 159.368 287.804 159.252 287.642 159.101C287.479 158.95 287.349 158.767 287.26 158.564C287.172 158.361 287.126 158.141 287.126 157.919C287.126 157.698 287.172 157.478 287.26 157.275C287.349 157.072 287.479 156.889 287.642 156.738C287.804 156.587 287.996 156.471 288.206 156.398C288.415 156.325 288.638 156.296 288.859 156.313H303.053V155.387Z" fill="#B99980"/>
<path d="M291.007 155.387H276.813C276.467 155.366 276.121 155.416 275.796 155.534C275.47 155.652 275.173 155.835 274.921 156.072C274.669 156.309 274.468 156.596 274.331 156.913C274.193 157.231 274.123 157.573 274.123 157.919C274.123 158.266 274.193 158.608 274.331 158.926C274.468 159.243 274.669 159.53 274.921 159.767C275.173 160.004 275.47 160.187 275.796 160.305C276.121 160.423 276.467 160.473 276.813 160.452H291.007V159.526H288.85C288.445 159.495 288.066 159.313 287.79 159.015C287.514 158.717 287.361 158.326 287.361 157.919C287.361 157.513 287.514 157.122 287.79 156.824C288.066 156.526 288.445 156.344 288.85 156.313H291.007V155.387Z" fill="#B99980"/>
<g opacity="0.4">
<path d="M303.053 155.387H288.859C288.514 155.366 288.167 155.416 287.842 155.534C287.517 155.652 287.219 155.835 286.967 156.072C286.715 156.309 286.514 156.596 286.377 156.913C286.24 157.231 286.169 157.573 286.169 157.919C286.169 158.266 286.24 158.608 286.377 158.926C286.514 159.243 286.715 159.53 286.967 159.767C287.219 160.004 287.517 160.187 287.842 160.305C288.167 160.423 288.514 160.473 288.859 160.452H303.053V159.526H288.859C288.638 159.543 288.415 159.514 288.206 159.441C287.996 159.368 287.804 159.252 287.642 159.101C287.479 158.95 287.349 158.767 287.26 158.564C287.172 158.361 287.126 158.141 287.126 157.919C287.126 157.698 287.172 157.478 287.26 157.275C287.349 157.072 287.479 156.889 287.642 156.738C287.804 156.587 287.996 156.471 288.206 156.398C288.415 156.325 288.638 156.296 288.859 156.313H303.053V155.387Z" fill="white"/>
</g>
<path d="M180.285 93.5719C183.662 92.5619 186.902 91.1408 189.933 89.3404C190.805 88.7956 191.596 88.1318 192.285 87.3682C192.453 87.1722 192.608 86.9649 192.748 86.7478C189.442 75.2107 186.099 70.1551 179.09 69.6273C173.757 76.4977 180.285 93.5719 180.285 93.5719Z" fill="#263238"/>
<path opacity="0.2" d="M189.933 89.3404C190.805 88.7956 191.596 88.1318 192.284 87.3681C191.7 86.1592 190.983 85.0194 190.146 83.97C189.372 85.6626 189.295 87.5918 189.933 89.3404Z" fill="black"/>
<path d="M303.165 214.749L308.646 208.665L294.239 196.063L288.757 202.147L303.165 214.749Z" fill="#FFC3BD"/>
<path opacity="0.2" d="M288.757 202.146L294.239 196.072L301.665 202.563L296.183 208.647L288.757 202.146Z" fill="black"/>
<path d="M305.906 205.961L297.915 210.591C297.777 210.669 297.671 210.795 297.619 210.945C297.566 211.094 297.569 211.258 297.628 211.406L300.406 218.258C300.481 218.425 300.59 218.575 300.727 218.697C300.863 218.819 301.024 218.912 301.198 218.969C301.373 219.025 301.557 219.045 301.739 219.026C301.922 219.007 302.098 218.951 302.257 218.86C305.035 217.193 306.267 216.248 309.776 214.23C311.943 212.98 316.906 210.526 319.887 208.785C322.869 207.045 321.322 203.998 319.887 204.461C313.619 206.498 310.1 206.211 307.304 205.721C306.824 205.646 306.333 205.731 305.906 205.961Z" fill="#263238"/>
<path d="M309.933 203.6C309.869 203.507 309.781 203.433 309.678 203.386C309.575 203.339 309.462 203.32 309.35 203.332C308.331 203.433 306.988 206.109 306.831 206.369C306.814 206.395 306.804 206.425 306.804 206.457C306.804 206.488 306.814 206.519 306.831 206.545C306.849 206.57 306.875 206.59 306.905 206.6C306.935 206.61 306.968 206.61 306.998 206.6C308.044 206.285 309.831 205.609 310.146 204.628C310.175 204.522 310.19 204.413 310.192 204.304C310.183 204.048 310.092 203.801 309.933 203.6ZM309.387 203.656C309.444 203.649 309.502 203.659 309.554 203.684C309.606 203.708 309.651 203.747 309.683 203.795C309.772 203.892 309.834 204.01 309.865 204.138C309.896 204.266 309.894 204.399 309.859 204.526C309.683 205.082 308.738 205.693 307.303 206.174C307.794 205.267 308.757 203.721 309.387 203.656Z" fill="#B99980"/>
<path d="M307.35 202.785C307.25 202.678 307.118 202.608 306.974 202.584C306.83 202.561 306.682 202.586 306.553 202.656C306.42 202.712 306.3 202.796 306.202 202.903C306.104 203.01 306.032 203.138 305.989 203.276C305.618 204.397 306.794 206.443 306.84 206.526C306.854 206.551 306.874 206.572 306.898 206.587C306.923 206.602 306.951 206.61 306.979 206.61C307.008 206.61 307.036 206.602 307.06 206.587C307.085 206.572 307.105 206.551 307.118 206.526C307.493 205.721 307.68 204.84 307.664 203.952C307.693 203.539 307.582 203.128 307.35 202.785ZM306.294 203.378C306.322 203.282 306.372 203.194 306.439 203.12C306.507 203.046 306.59 202.989 306.683 202.952C306.924 202.85 307.044 202.952 307.109 203.008C307.526 203.48 307.331 205.193 306.97 206.091C306.674 205.508 306.035 204.137 306.294 203.415V203.378Z" fill="#B99980"/>
<path d="M186.359 79.2755C184.775 88.2014 188.618 96.7848 195.692 102.174C196.271 102.592 196.952 102.845 197.664 102.905C197.664 102.905 197.71 102.905 197.664 102.989C197.867 102.75 198.116 102.554 198.396 102.415C198.677 102.276 198.983 102.196 199.295 102.179C199.608 102.162 199.921 102.21 200.215 102.319C200.508 102.428 200.777 102.595 201.003 102.812C201.23 103.028 201.409 103.288 201.531 103.577C201.654 103.865 201.715 104.176 201.713 104.489C201.711 104.802 201.645 105.111 201.518 105.398C201.392 105.684 201.209 105.942 200.979 106.155L200.562 106.646C199.732 107.48 198.716 108.107 197.598 108.474C196.48 108.84 195.29 108.938 194.127 108.757C189.822 108.137 186.951 105.766 184.22 102.813C181.104 99.3653 178.859 95.2217 177.674 90.7288C176.488 86.2359 176.396 81.5243 177.405 76.9884C179.099 70.9976 187.683 73.2014 186.377 79.2755H186.359Z" fill="#E9B376"/>
<path d="M189.701 81.2477C190.753 85.7535 191.495 90.3259 191.923 94.933C192.719 101.637 193.303 108.276 194.071 119.359L160.506 124.711C159.682 115.146 156.877 104.544 147.478 84.22C146.946 83.1643 146.656 82.0028 146.631 80.8205C146.606 79.6383 146.846 78.4655 147.333 77.3882C147.821 76.3109 148.544 75.3565 149.449 74.5952C150.353 73.8338 151.417 73.2848 152.562 72.9884C153.867 72.6458 155.266 72.3032 156.701 72.0069C161.717 70.8395 166.81 70.0319 171.942 69.5903C173.627 69.4791 175.377 69.4143 177.053 69.3865C183.108 69.2384 188.581 75.3588 189.701 81.2477Z" fill="#263238"/>
<path d="M205.358 100.729L205.007 102.914C204.942 103.321 204.782 103.706 204.539 104.038C204.295 104.369 203.977 104.638 203.608 104.822L200.127 106.553C199.439 106.895 198.679 107.067 197.911 107.056C197.143 107.045 196.388 106.85 195.71 106.489L194.868 106.035C195.192 102.331 198.247 98.6274 198.247 98.6274L199.007 97.4608C199.155 97.219 199.35 97.009 199.58 96.8431C199.811 96.6771 200.072 96.5584 200.348 96.4938C200.624 96.4293 200.911 96.4201 201.191 96.4669C201.471 96.5136 201.738 96.6154 201.979 96.7663L204.284 98.2293C204.688 98.4952 205.005 98.8738 205.196 99.3182C205.387 99.7626 205.444 100.253 205.358 100.729Z" fill="#EBB376"/>
<path d="M162.229 157.841C174.562 167.452 204.09 164.165 230.951 160.433C234.044 165.313 237.757 169.77 241.998 173.693C253.905 185.054 269.905 194.6 280.452 200.239C287.035 203.776 291.498 205.795 291.498 205.795L299.183 197.554C299.183 197.554 284.794 184.591 268.877 170.461C258.063 160.832 246.535 150.646 238.377 143.609C237.927 143.233 237.413 142.941 236.859 142.748C236.038 142.475 235.191 142.292 234.331 142.202L232.525 141.952L231.053 141.757C221.97 140.489 202.109 137.989 202.109 137.989L193.775 117.239L159.71 118.35C159.71 118.35 151.599 149.563 162.229 157.841Z" fill="#B99980"/>
<path d="M302.303 198.424L292.581 208.804L287.924 205.517L298.488 194.508L302.303 198.424Z" fill="#263238"/>
<path opacity="0.2" d="M227.655 141.637C231.878 152.563 236.665 163.263 241.998 173.693C253.905 185.054 269.905 194.6 280.452 200.239C278.065 189.799 274.166 179.764 268.877 170.452C267.396 167.85 265.748 165.202 263.924 162.563C254.933 149.6 244.275 144.618 236.859 142.739C235.933 142.517 235.127 142.331 234.331 142.192C233.09 141.97 231.988 141.831 231.053 141.748C229.925 141.621 228.789 141.584 227.655 141.637Z" fill="black"/>
<path d="M271.767 207.896L279.489 205.202L272.915 187.22L265.193 189.915L271.767 207.896Z" fill="#FFC3BD"/>
<path opacity="0.2" d="M265.193 189.924L272.924 187.23L276.304 196.498L268.572 199.193L265.193 189.924Z" fill="black"/>
<path d="M278.387 201.563L269.127 201.795C268.967 201.792 268.811 201.849 268.691 201.955C268.571 202.062 268.495 202.209 268.479 202.369L267.609 209.702C267.595 209.887 267.619 210.073 267.681 210.248C267.743 210.423 267.84 210.583 267.968 210.719C268.095 210.854 268.249 210.961 268.42 211.033C268.591 211.105 268.775 211.141 268.961 211.137C272.183 210.999 273.729 210.767 277.794 210.674C280.294 210.61 285.831 210.841 289.285 210.758C292.739 210.674 292.831 207.249 291.387 206.98C284.905 205.749 281.961 203.804 279.748 202.036C279.362 201.725 278.881 201.559 278.387 201.563Z" fill="#263238"/>
<path d="M283.063 201.378C283.05 201.267 283.008 201.162 282.942 201.072C282.875 200.983 282.786 200.912 282.683 200.869C281.757 200.461 279.285 202.128 278.979 202.323C278.954 202.34 278.935 202.364 278.924 202.392C278.912 202.42 278.909 202.45 278.914 202.48C278.919 202.511 278.933 202.54 278.955 202.563C278.976 202.586 279.004 202.603 279.035 202.61C280.1 202.832 281.998 203.1 282.739 202.387C282.813 202.312 282.879 202.228 282.933 202.137C283.058 201.905 283.104 201.639 283.063 201.378ZM282.553 201.165C282.606 201.188 282.652 201.225 282.685 201.273C282.718 201.32 282.736 201.376 282.739 201.434C282.773 201.56 282.773 201.694 282.739 201.821C282.705 201.948 282.638 202.064 282.544 202.156C282.127 202.563 281.007 202.637 279.516 202.369C280.377 201.813 281.97 200.915 282.553 201.165Z" fill="#B99980"/>
<path d="M281.183 199.424C281.151 199.28 281.07 199.151 280.953 199.06C280.837 198.969 280.692 198.921 280.544 198.924C280.401 198.906 280.254 198.921 280.118 198.97C279.981 199.018 279.858 199.097 279.757 199.202C278.887 199.998 278.933 202.36 278.942 202.452C278.941 202.481 278.949 202.509 278.963 202.534C278.978 202.559 279 202.578 279.026 202.591C279.05 202.605 279.077 202.612 279.104 202.612C279.132 202.612 279.159 202.605 279.183 202.591C279.898 202.064 280.487 201.384 280.905 200.6C281.127 200.25 281.225 199.836 281.183 199.424ZM279.97 199.424C280.042 199.355 280.128 199.302 280.222 199.27C280.317 199.238 280.417 199.227 280.516 199.239C280.785 199.239 280.85 199.387 280.868 199.489C281.007 200.11 280.007 201.517 279.267 202.128C279.257 201.48 279.387 199.98 279.97 199.434V199.424Z" fill="#B99980"/>
<path opacity="0.3" d="M162.229 157.841C174.562 167.452 204.09 164.165 230.951 160.433C234.044 165.313 237.757 169.77 241.998 173.693C253.905 185.054 269.905 194.6 280.452 200.239C287.035 203.776 291.498 205.795 291.498 205.795L299.183 197.554C299.183 197.554 284.794 184.591 268.877 170.461C258.063 160.832 246.535 150.646 238.377 143.609C237.927 143.233 237.413 142.941 236.859 142.748C236.038 142.475 235.191 142.292 234.331 142.202L232.525 141.952L231.053 141.757C221.97 140.489 202.109 137.989 202.109 137.989L193.775 117.239L159.71 118.35C159.71 118.35 151.599 149.563 162.229 157.841Z" fill="black"/>
<path d="M162.766 126.202C162.766 126.202 213.97 121.072 232.924 123.248C251.442 125.368 276.563 191.415 276.563 191.415L265.526 195.239C244.526 171.517 232.618 154.359 227.655 141.637C182.692 158.387 166.294 157.044 166.294 157.044L162.766 126.202Z" fill="#B99980"/>
<path opacity="0.3" d="M162.766 126.202C162.766 126.202 213.97 121.072 232.924 123.248C251.442 125.368 276.563 191.415 276.563 191.415L265.526 195.239C244.526 171.517 232.618 154.359 227.655 141.637C182.692 158.387 166.294 157.044 166.294 157.044L162.766 126.202Z" fill="black"/>
<path d="M278.859 193.174L265.35 197.591L262.84 192.471L277.396 187.896L278.859 193.174Z" fill="#263238"/>
<path opacity="0.2" d="M227.655 141.637C227.655 141.637 226.248 137.452 223.349 136.767C220.451 136.081 196.146 136.359 196.146 136.359L227.655 141.637Z" fill="black"/>
<path opacity="0.2" d="M160.191 90.7478C160.191 90.7478 163.895 98.7571 160.191 101.498C156.488 104.239 153.553 91.5811 160.191 90.7478Z" fill="black"/>
<path d="M177.257 74.8403C177.257 74.8403 185.997 84.7292 194.849 121.137L198.701 117.211C198.701 117.211 200.34 111.711 196.127 110.859C196.127 110.859 197.831 104.035 194.053 101.887C194.053 101.887 193.266 93.007 190.303 90.1551C190.225 88.9527 189.953 87.7707 189.497 86.6551C189.276 86.0325 188.917 85.4678 188.447 85.0029C187.978 84.538 187.409 84.1849 186.785 83.9699C186.785 83.9699 183.747 71.3588 178.451 69.155C173.155 66.9513 177.257 74.8403 177.257 74.8403Z" fill="#B99980"/>
<path opacity="0.2" d="M196.146 110.822L194.072 113.794C194.072 113.794 196.627 113.794 196.146 110.822Z" fill="black"/>
<path opacity="0.2" d="M194.071 101.887L191.516 105.266C191.926 105.266 192.331 105.171 192.699 104.988C193.066 104.805 193.386 104.539 193.634 104.212C193.881 103.884 194.05 103.504 194.126 103.101C194.202 102.697 194.183 102.282 194.071 101.887Z" fill="black"/>
<path opacity="0.2" d="M190.368 90.1552L187.988 92.7385C187.988 92.7385 190.645 92.0811 190.368 90.1552Z" fill="black"/>
<path opacity="0.2" d="M185.534 81.5996L183.96 83.97C184.439 83.791 184.849 83.4655 185.131 83.0398C185.414 82.6142 185.555 82.1101 185.534 81.5996Z" fill="black"/>
<path d="M215.599 80.8218L212.942 79.507L203.683 82.6181L190.72 80.0347L188.368 89.8681C188.368 89.8681 188.368 100.664 188.988 100.748C189.608 100.831 203.599 100.748 203.599 100.748L210.433 95.8219L215.599 80.8218Z" fill="#E0E0E0"/>
<path d="M187.386 80.9607L183.025 103.553L200.506 104.516L212.303 100.526L217.229 79.257L203.729 83.5903L187.386 80.9607Z" fill="#B99980"/>
<path opacity="0.5" d="M187.386 80.9607L183.025 103.553L200.506 104.516L212.303 100.526L217.229 79.257L203.729 83.5903L187.386 80.9607Z" fill="white"/>
<path opacity="0.2" d="M203.729 83.5903L200.506 104.516L183.025 103.563L187.386 80.9607L203.729 83.5903Z" fill="white"/>
<path d="M177.257 74.8403C177.257 74.8403 182.812 68.7106 178.312 65.4884C173.812 62.2661 150.655 63.118 149.609 67.5717C148.562 72.0255 177.257 74.8403 177.257 74.8403Z" fill="#B99980"/>
<path opacity="0.2" d="M177.257 74.8403C177.257 74.8403 182.812 68.7106 178.312 65.4884C173.812 62.2661 150.655 63.118 149.609 67.5717C148.562 72.0255 177.257 74.8403 177.257 74.8403Z" fill="black"/>
<path d="M156.701 71.9329C151.145 73.1736 174.849 78.0903 174.849 78.0903C174.849 78.0903 187.016 65.1921 156.701 71.9329Z" fill="#EBB376"/>
<path d="M158.886 54.6736C160.238 59.6366 161.895 68.7292 158.673 72.0533C158.673 72.0533 160.525 74.1459 173.367 77.507C176.256 73.3589 174.099 72.0348 174.099 72.0348C168.469 70.72 168.303 66.6088 168.969 62.7755L158.886 54.6736Z" fill="#EBB376"/>
<path opacity="0.2" d="M162.97 57.9698L168.942 62.7477C168.764 63.6629 168.674 64.5931 168.673 65.5254C166.534 65.2199 163.451 62.9051 163.062 60.6828C162.866 59.7917 162.835 58.8723 162.97 57.9698Z" fill="black"/>
<path d="M158.766 34.6734C158.766 34.6734 156.293 27.8678 150.738 29.2104C145.182 30.553 143.868 35.692 145.71 41.8309C147.553 47.9698 145.071 49.2383 145.071 49.2383C145.071 49.2383 151.553 50.2939 152.127 42.8679C152.701 35.442 156.516 37.766 156.516 37.766L158.766 34.6734Z" fill="#263238"/>
<path d="M159.099 42.5067C158.321 50.6271 157.821 54.0438 161.154 59.0068C166.164 66.4698 176.099 66.155 179.229 58.5531C182.053 51.7105 182.849 39.5808 175.645 34.7381C174.133 33.647 172.356 32.9803 170.5 32.8071C168.643 32.6338 166.774 32.9604 165.086 33.7529C163.398 34.5454 161.953 35.775 160.9 37.3142C159.847 38.8534 159.225 40.6462 159.099 42.5067Z" fill="#EBB376"/>
<path d="M168.562 46.6365C168.47 47.3124 168.738 47.9328 169.164 48.0254C169.59 48.118 170.016 47.6365 170.09 46.9606C170.164 46.2846 169.914 45.655 169.488 45.5624C169.062 45.4698 168.664 45.9513 168.562 46.6365Z" fill="#263238"/>
<path d="M176.923 48.1272C176.821 48.8032 177.09 49.4235 177.516 49.5161C177.942 49.6087 178.368 49.1272 178.442 48.4513C178.516 47.7754 178.266 47.1457 177.84 47.0532C177.414 46.9606 177.016 47.442 176.923 48.1272Z" fill="#263238"/>
<path d="M177.664 47.0531L179.303 46.9142C179.303 46.9142 178.331 48.0161 177.664 47.0531Z" fill="#263238"/>
<path d="M174.173 49.0809C174.541 50.7552 175.12 52.3762 175.895 53.905C175.523 54.0867 175.115 54.1811 174.701 54.1811C174.287 54.1811 173.878 54.0867 173.506 53.905L174.173 49.0809Z" fill="#D58745"/>
<path d="M169.414 55.5902C169.762 55.7282 170.121 55.8366 170.488 55.9142C170.513 55.9211 170.539 55.9224 170.565 55.9179C170.591 55.9134 170.615 55.9032 170.636 55.8882C170.658 55.8731 170.675 55.8535 170.688 55.8308C170.701 55.8081 170.708 55.7828 170.71 55.7568C170.718 55.703 170.706 55.648 170.675 55.6033C170.644 55.5585 170.597 55.5273 170.544 55.5161C169.71 55.3419 168.926 54.9838 168.248 54.468C167.571 53.9522 167.017 53.2917 166.627 52.5346C166.608 52.4845 166.57 52.4438 166.522 52.4213C166.473 52.3988 166.418 52.3962 166.368 52.4142C166.32 52.4381 166.284 52.4795 166.267 52.5297C166.249 52.5798 166.252 52.6347 166.275 52.6827C166.933 54.001 168.049 55.0345 169.414 55.5902Z" fill="#263238"/>
<path d="M167.932 42.118C167.979 42.1431 168.032 42.1562 168.085 42.1562C168.139 42.1562 168.191 42.1431 168.238 42.118C168.645 41.8506 169.112 41.6893 169.597 41.6489C170.083 41.6085 170.57 41.6902 171.016 41.8865C171.061 41.9096 171.111 41.9231 171.161 41.9262C171.212 41.9294 171.263 41.922 171.311 41.9047C171.359 41.8873 171.402 41.8603 171.439 41.8253C171.476 41.7903 171.505 41.7481 171.525 41.7013C171.563 41.601 171.563 41.4905 171.525 41.3901C171.488 41.2897 171.415 41.2062 171.321 41.155C170.762 40.9054 170.15 40.7985 169.539 40.8437C168.928 40.889 168.338 41.085 167.821 41.4143C167.734 41.4743 167.674 41.5659 167.653 41.6696C167.633 41.7732 167.653 41.8809 167.71 41.9698C167.766 42.0428 167.844 42.095 167.932 42.118Z" fill="#263238"/>
<path d="M180.942 44.3679C180.987 44.3887 181.036 44.3994 181.085 44.3994C181.135 44.3994 181.184 44.3887 181.229 44.3679C181.277 44.3468 181.32 44.3164 181.357 44.2784C181.393 44.2404 181.422 44.1956 181.441 44.1465C181.459 44.0974 181.469 44.0451 181.467 43.9925C181.466 43.9399 181.454 43.8881 181.432 43.8401C181.216 43.2337 180.863 42.6853 180.4 42.2373C179.938 41.7893 179.379 41.4538 178.766 41.2568C178.716 41.2446 178.665 41.2431 178.615 41.2522C178.565 41.2614 178.517 41.281 178.475 41.3099C178.433 41.3387 178.398 41.3761 178.371 41.4197C178.345 41.4632 178.328 41.5118 178.321 41.5623C178.304 41.6686 178.326 41.7776 178.384 41.8682C178.442 41.9589 178.532 42.0247 178.636 42.0531C179.118 42.2168 179.557 42.4877 179.919 42.8453C180.282 43.2029 180.558 43.638 180.729 44.1179C180.743 44.1729 180.77 44.2238 180.807 44.2671C180.844 44.3104 180.89 44.3448 180.942 44.3679Z" fill="#263238"/>
<path d="M169.312 45.5625L170.951 45.4236C170.951 45.4236 169.998 46.5255 169.312 45.5625Z" fill="#263238"/>
<path d="M167.534 36.2753C167.161 38.0118 166.402 39.6421 165.314 41.046C164.225 42.4499 162.836 43.5915 161.247 44.3864L160.22 50.5254L158.96 54.2754C158.96 54.2754 152.608 52.9235 153.701 42.2383C154.442 35.053 157.812 32.979 160.183 32.3493C161.495 32.0474 162.725 31.4594 163.784 30.6271C165.312 29.3771 168.414 28.1549 174.118 30.303C182.535 33.4697 180.109 40.5438 180.109 40.5438C179.11 38.9357 177.725 37.6022 176.081 36.6642C173.766 35.479 169.71 34.8957 167.534 36.2753Z" fill="#263238"/>
<path d="M155.451 48.5624C156.016 50.2016 157.208 51.55 158.766 52.3124C160.775 53.2383 162.071 51.3217 161.747 49.0716C161.46 47.0439 160.062 44.1086 157.923 44.1364C155.784 44.1642 154.729 46.4883 155.451 48.5624Z" fill="#EBB376"/>
<path d="M168.571 125.637L150.775 121.063C150.775 121.063 147.525 116.572 151.969 113.127C151.969 113.127 147.682 107.479 151.969 101.868L153.571 87.3311C153.571 87.3311 159.71 83.9607 158.525 77.4514C158.235 75.9835 157.686 74.579 156.904 73.3032L165.043 75.7662L166.738 76.2755C170.923 82.5996 168.571 125.637 168.571 125.637Z" fill="#B99980"/>
<path opacity="0.2" d="M165.914 76.294C163.471 76.836 160.997 77.2287 158.506 77.47C158.216 76.0021 157.668 74.5975 156.886 73.3218L165.025 75.7848C165.368 75.9422 165.618 76.1088 165.914 76.294Z" fill="black"/>
<path opacity="0.2" d="M151.969 113.146C151.969 113.146 156.479 116.97 164.84 116.6C164.84 116.6 155.405 112.266 151.969 113.146Z" fill="black"/>
<path opacity="0.2" d="M151.969 101.887C151.969 101.887 162.618 106.137 167.831 104.794C167.831 104.794 157.108 100.174 151.969 101.887Z" fill="black"/>
<path opacity="0.2" d="M153.571 94.5442C153.571 94.5442 164.682 97.4053 167.831 95.6553C167.831 95.6553 157.368 92.5256 153.571 94.5442Z" fill="black"/>
<path opacity="0.2" d="M167.83 85.933C167.83 85.933 159.117 84.1829 155.229 86.6552C155.229 86.6552 165.266 87.8681 167.83 85.933Z" fill="black"/>
<path d="M153.571 66.8402C157.275 68.5347 166.747 76.2847 166.747 76.2847C166.747 76.2847 149.71 74.581 148.701 72.2662C147.692 69.9513 147.284 63.9513 153.571 66.8402Z" fill="#B99980"/>
<path d="M194.183 96.2756L191.71 95.7294C191.251 95.6255 190.773 95.6335 190.317 95.7527C189.861 95.872 189.44 96.0989 189.09 96.4145L185.738 99.396C185.087 99.9823 184.585 100.716 184.276 101.536C183.967 102.356 183.858 103.239 183.96 104.109L184.081 105.211C188.127 106.405 193.34 104.711 193.34 104.711L194.886 104.396C195.206 104.341 195.512 104.224 195.786 104.05C196.06 103.876 196.296 103.649 196.481 103.383C196.667 103.116 196.797 102.816 196.865 102.499C196.933 102.181 196.937 101.854 196.877 101.535L196.294 98.4516C196.184 97.9262 195.927 97.4427 195.554 97.0575C195.18 96.6723 194.704 96.4011 194.183 96.2756Z" fill="#EBB376"/>
<path d="M156.479 87.9792C158.15 94.1854 160.407 100.219 163.22 105.998C164.165 107.842 165.213 109.632 166.358 111.359L165.757 110.711C165.497 110.498 165.22 110.479 165.275 110.507C166.362 110.568 167.449 110.378 168.451 109.952C170.516 109.18 172.519 108.251 174.442 107.174C178.534 104.989 182.609 102.405 186.479 99.8589C186.95 99.466 187.559 99.2765 188.17 99.332C188.781 99.3876 189.345 99.6837 189.738 100.155C190.131 100.627 190.321 101.235 190.265 101.846C190.21 102.457 189.913 103.022 189.442 103.414C183.822 108.97 168.414 123.553 160.321 117.026C153.84 109.322 149.988 99.7941 147.497 90.1089C146.294 84.1366 154.905 82.0903 156.507 87.9607L156.479 87.9792Z" fill="#E9B376"/>
<path d="M149.969 74.1459C144.238 78.2015 143.969 84.2478 147.062 95.8497C151.201 97.9238 161.257 95.3034 161.257 95.3034C161.257 95.3034 158.081 77.294 149.969 74.1459Z" fill="#263238"/>
<path d="M155.571 148.785C154.821 146.887 147.655 144.628 143.442 143.443C146.655 141.896 147.349 138.137 147.349 138.137C143.433 137.711 140.405 141.906 140.405 141.906C139.849 137.693 134.849 136.628 134.849 136.628C134.757 137.921 134.991 139.217 135.527 140.398C136.064 141.578 136.888 142.606 137.923 143.387C133.673 144.748 125.358 147.554 125.192 148.785C124.956 149.104 124.83 149.491 124.831 149.887V158.526C124.831 159.017 125.026 159.488 125.373 159.835C125.72 160.183 126.191 160.378 126.682 160.378H153.988C154.479 160.378 154.95 160.183 155.298 159.835C155.645 159.488 155.84 159.017 155.84 158.526V149.887C155.868 149.501 155.774 149.115 155.571 148.785Z" fill="#B99980"/>
<path opacity="0.3" d="M155.932 149.924V158.563C155.932 159.054 155.737 159.525 155.39 159.872C155.043 160.22 154.572 160.415 154.081 160.415H126.738C126.247 160.415 125.776 160.22 125.428 159.872C125.081 159.525 124.886 159.054 124.886 158.563V149.924C124.885 149.528 125.012 149.141 125.247 148.822C125.405 147.591 133.729 144.785 137.979 143.433C137.49 143.119 137.048 142.739 136.664 142.304C135.351 140.74 134.688 138.731 134.812 136.693C134.812 136.693 139.793 137.748 140.368 141.961C140.368 141.961 143.395 137.767 147.312 138.193C146.87 140.251 145.645 142.058 143.895 143.23C143.738 143.33 143.574 143.42 143.405 143.498H143.469L143.655 143.554L143.895 143.628C148.155 144.841 154.812 147.007 155.534 148.822C155.783 149.137 155.922 149.523 155.932 149.924Z" fill="white"/>
<path opacity="0.2" d="M138.59 143.841C138.59 143.841 126.96 147.544 127.053 148.554C127.145 149.563 138.59 144.387 138.59 144.387C138.59 144.387 137.127 145.767 137.951 146.406C138.775 147.044 139.321 145.026 139.321 145.026C139.321 145.026 139.043 148.517 139.96 148.73C140.877 148.943 142.071 146.007 138.59 143.841Z" fill="black"/>
<path opacity="0.2" d="M149.441 145.766C149.673 146.313 143.812 144.165 143.534 144.165C143.256 144.165 145.136 145.304 144.219 145.581C143.303 145.859 141.793 144.165 141.525 144.257C141.256 144.35 143.08 146.174 143.173 147.276C143.173 147.276 141.015 143.739 137.951 143.433C137.472 143.117 137.039 142.737 136.664 142.304C137.329 142.79 138.119 143.076 138.941 143.128C138.941 143.128 136.719 141.165 137.682 140.452C138.645 139.739 139.534 142.942 139.534 142.942L140.386 141.961V142.581C140.386 142.581 143.071 140.424 143.756 140.933C144.441 141.442 140.914 143.137 140.914 143.137C141.906 143.32 142.921 143.351 143.923 143.229C143.766 143.33 143.602 143.42 143.432 143.498H143.497L143.682 143.554L143.923 143.628C145.33 144.063 149.247 145.313 149.441 145.766Z" fill="black"/>
<path d="M131.581 133.044V130.267H126.766V133.044C126.765 133.411 126.688 133.772 126.54 134.107C126.391 134.442 126.175 134.742 125.905 134.989C125.631 135.234 125.412 135.533 125.262 135.868C125.112 136.203 125.034 136.566 125.034 136.933V159.035C125.033 159.224 125.07 159.411 125.142 159.585C125.215 159.76 125.321 159.918 125.456 160.05C125.591 160.182 125.751 160.286 125.927 160.355C126.102 160.424 126.29 160.457 126.479 160.452H131.96C132.33 160.45 132.684 160.301 132.946 160.04C133.208 159.778 133.356 159.424 133.358 159.054V136.952C133.358 136.586 133.281 136.224 133.132 135.889C132.984 135.554 132.768 135.254 132.497 135.007C132.213 134.765 131.984 134.464 131.826 134.125C131.668 133.787 131.584 133.418 131.581 133.044Z" fill="#B99980"/>
<path opacity="0.6" d="M133.312 143.896V136.952C133.311 136.586 133.234 136.224 133.086 135.889C132.938 135.554 132.721 135.254 132.451 135.007C132.177 134.762 131.958 134.463 131.808 134.128C131.658 133.793 131.581 133.43 131.581 133.063V130.285H126.766V133.063C126.765 133.429 126.688 133.791 126.54 134.126C126.391 134.46 126.175 134.761 125.905 135.007C125.631 135.252 125.412 135.552 125.262 135.887C125.112 136.222 125.034 136.585 125.034 136.952V143.896H133.312Z" fill="white"/>
<path opacity="0.6" d="M125.034 152.563V159.045C125.034 159.232 125.072 159.419 125.145 159.592C125.218 159.765 125.325 159.922 125.459 160.053C125.594 160.184 125.754 160.287 125.929 160.356C126.104 160.424 126.291 160.457 126.479 160.452H131.96C132.33 160.45 132.684 160.301 132.946 160.04C133.208 159.778 133.356 159.424 133.358 159.054V152.572L125.034 152.563Z" fill="white"/>
<path d="M131.719 129.554H126.636C126.467 129.554 126.331 129.691 126.331 129.859V131.415C126.331 131.584 126.467 131.72 126.636 131.72H131.719C131.888 131.72 132.025 131.584 132.025 131.415V129.859C132.025 129.691 131.888 129.554 131.719 129.554Z" fill="#B99980"/>
<path d="M122.932 160.452H113.608L112.367 145.165H124.173L122.932 160.452Z" fill="#263238"/>
<path opacity="0.6" d="M121.052 151.933C121.052 152.483 120.89 153.02 120.584 153.477C120.279 153.933 119.845 154.289 119.338 154.5C118.83 154.71 118.272 154.765 117.733 154.658C117.194 154.551 116.699 154.286 116.31 153.898C115.922 153.509 115.657 153.014 115.55 152.475C115.443 151.936 115.498 151.378 115.708 150.87C115.919 150.363 116.275 149.929 116.731 149.624C117.188 149.318 117.725 149.156 118.275 149.156C119.011 149.156 119.718 149.448 120.239 149.969C120.76 150.49 121.052 151.197 121.052 151.933Z" fill="white"/>
<path d="M124.692 145.563H111.849L113.09 144.174H123.451L124.692 145.563Z" fill="#263238"/>
<path opacity="0.6" d="M124.692 145.563H111.849L113.09 144.174H123.451L124.692 145.563Z" fill="white"/>
</svg>
